<mxfile host="app.diagrams.net" modified="2024-07-09T08:05:29.291Z" agent="Mozilla/5.0 (Windows NT 10.0; Win64; x64) AppleWebKit/537.36 (KHTML, like Gecko) Chrome/126.0.0.0 Safari/537.36" etag="FYuOf-XkDKwvSHQOyeWN" version="24.6.4" type="device" pages="5">
  <diagram id="NIJT_eNwgPCjwMeY6-0-" name="Login/Registro">
    <mxGraphModel dx="1434" dy="780" grid="1" gridSize="10" guides="1" tooltips="1" connect="1" arrows="1" fold="1" page="1" pageScale="1" pageWidth="827" pageHeight="1169" math="0" shadow="0">
      <root>
        <mxCell id="0" />
        <mxCell id="1" parent="0" />
        <mxCell id="F3q3yt3XxH-QgDh0CFUW-5" value="" style="rounded=0;whiteSpace=wrap;html=1;" parent="1" vertex="1">
          <mxGeometry width="820" height="1160" as="geometry" />
        </mxCell>
        <mxCell id="F3q3yt3XxH-QgDh0CFUW-18" value="" style="group" parent="1" vertex="1" connectable="0">
          <mxGeometry x="50" y="240" width="290" height="420" as="geometry" />
        </mxCell>
        <mxCell id="F3q3yt3XxH-QgDh0CFUW-7" value="Login" style="swimlane;whiteSpace=wrap;html=1;movable=1;resizable=1;rotatable=1;deletable=1;editable=1;locked=0;connectable=1;" parent="F3q3yt3XxH-QgDh0CFUW-18" vertex="1">
          <mxGeometry width="290" height="420" as="geometry" />
        </mxCell>
        <UserObject label="Iniciar Sesión" link="data:page/id,C5XJyP3ficeGiDk7JTWP" id="F3q3yt3XxH-QgDh0CFUW-16">
          <mxCell style="rounded=1;whiteSpace=wrap;html=1;movable=1;resizable=1;rotatable=1;deletable=1;editable=1;locked=0;connectable=1;" parent="F3q3yt3XxH-QgDh0CFUW-7" vertex="1">
            <mxGeometry x="65" y="177.5" width="160" height="35" as="geometry" />
          </mxCell>
        </UserObject>
        <mxCell id="F3q3yt3XxH-QgDh0CFUW-14" value="Nombre/Apodo&lt;span style=&quot;color: rgba(0, 0, 0, 0); font-family: monospace; font-size: 0px; font-weight: 400; text-wrap: nowrap;&quot;&gt;%3CmxGraphModel%3E%3Croot%3E%3CmxCell%20id%3D%220%22%2F%3E%3CmxCell%20id%3D%221%22%20parent%3D%220%22%2F%3E%3CmxCell%20id%3D%222%22%20value%3D%22Nombre%2FApodo%22%20style%3D%22swimlane%3BwhiteSpace%3Dwrap%3Bhtml%3D1%3Balign%3Dleft%3B%22%20vertex%3D%221%22%20parent%3D%221%22%3E%3CmxGeometry%20x%3D%22490%22%20y%3D%22290%22%20width%3D%22210%22%20height%3D%2250%22%20as%3D%22geometry%22%2F%3E%3C%2FmxCell%3E%3C%2Froot%3E%3C%2FmxGraphModel%3E&lt;/span&gt;" style="swimlane;whiteSpace=wrap;html=1;align=left;movable=1;resizable=1;rotatable=1;deletable=1;editable=1;locked=0;connectable=1;" parent="F3q3yt3XxH-QgDh0CFUW-18" vertex="1">
          <mxGeometry x="40" y="50" width="210" height="50" as="geometry" />
        </mxCell>
        <mxCell id="F3q3yt3XxH-QgDh0CFUW-15" value="Contraseña" style="swimlane;whiteSpace=wrap;html=1;align=left;movable=1;resizable=1;rotatable=1;deletable=1;editable=1;locked=0;connectable=1;" parent="F3q3yt3XxH-QgDh0CFUW-18" vertex="1">
          <mxGeometry x="40" y="110" width="210" height="50" as="geometry" />
        </mxCell>
        <mxCell id="F3q3yt3XxH-QgDh0CFUW-19" value="" style="group" parent="1" vertex="1" connectable="0">
          <mxGeometry x="490" y="240" width="290" height="420" as="geometry" />
        </mxCell>
        <mxCell id="F3q3yt3XxH-QgDh0CFUW-8" value="Registro" style="swimlane;whiteSpace=wrap;html=1;" parent="F3q3yt3XxH-QgDh0CFUW-19" vertex="1">
          <mxGeometry width="290" height="420" as="geometry" />
        </mxCell>
        <mxCell id="F3q3yt3XxH-QgDh0CFUW-11" value="Contraseña" style="swimlane;whiteSpace=wrap;html=1;align=left;" parent="F3q3yt3XxH-QgDh0CFUW-8" vertex="1">
          <mxGeometry x="20" y="170" width="210" height="50" as="geometry" />
        </mxCell>
        <UserObject label="Registrar" link="data:page/id,NIJT_eNwgPCjwMeY6-0-" id="F3q3yt3XxH-QgDh0CFUW-13">
          <mxCell style="rounded=1;whiteSpace=wrap;html=1;" parent="F3q3yt3XxH-QgDh0CFUW-8" vertex="1">
            <mxGeometry x="50" y="315" width="160" height="35" as="geometry" />
          </mxCell>
        </UserObject>
        <mxCell id="F3q3yt3XxH-QgDh0CFUW-9" value="Nombre/Apodo" style="swimlane;whiteSpace=wrap;html=1;align=left;" parent="F3q3yt3XxH-QgDh0CFUW-19" vertex="1">
          <mxGeometry x="20" y="50" width="210" height="50" as="geometry" />
        </mxCell>
        <mxCell id="F3q3yt3XxH-QgDh0CFUW-10" value="Correo" style="swimlane;whiteSpace=wrap;html=1;align=left;" parent="F3q3yt3XxH-QgDh0CFUW-19" vertex="1">
          <mxGeometry x="20" y="110" width="210" height="50" as="geometry" />
        </mxCell>
        <mxCell id="F3q3yt3XxH-QgDh0CFUW-12" value="Repetir Contraseña" style="swimlane;whiteSpace=wrap;html=1;align=left;" parent="F3q3yt3XxH-QgDh0CFUW-19" vertex="1">
          <mxGeometry x="20" y="230" width="210" height="50" as="geometry" />
        </mxCell>
        <mxCell id="F3q3yt3XxH-QgDh0CFUW-20" value="" style="shape=sumEllipse;perimeter=ellipsePerimeter;whiteSpace=wrap;html=1;backgroundOutline=1;" parent="1" vertex="1">
          <mxGeometry x="315" y="30" width="198" height="190" as="geometry" />
        </mxCell>
      </root>
    </mxGraphModel>
  </diagram>
  <diagram id="C5XJyP3ficeGiDk7JTWP" name="Página Inicio">
    <mxGraphModel dx="1434" dy="780" grid="1" gridSize="10" guides="1" tooltips="1" connect="1" arrows="1" fold="1" page="1" pageScale="1" pageWidth="827" pageHeight="1169" math="0" shadow="0">
      <root>
        <mxCell id="0" />
        <mxCell id="1" parent="0" />
        <mxCell id="nTPzxVOP3XZ9Fk917l1m-4" value="" style="group" parent="1" vertex="1" connectable="0">
          <mxGeometry width="820" height="1160" as="geometry" />
        </mxCell>
        <mxCell id="nTPzxVOP3XZ9Fk917l1m-2" value="" style="rounded=0;whiteSpace=wrap;html=1;" parent="nTPzxVOP3XZ9Fk917l1m-4" vertex="1">
          <mxGeometry width="820" height="1160" as="geometry" />
        </mxCell>
        <mxCell id="nTPzxVOP3XZ9Fk917l1m-3" value="" style="rounded=0;whiteSpace=wrap;html=1;" parent="nTPzxVOP3XZ9Fk917l1m-4" vertex="1">
          <mxGeometry width="820" height="80" as="geometry" />
        </mxCell>
        <UserObject label="" link="data:page/id,C5XJyP3ficeGiDk7JTWP" id="nTPzxVOP3XZ9Fk917l1m-5">
          <mxCell style="shape=sumEllipse;perimeter=ellipsePerimeter;whiteSpace=wrap;html=1;backgroundOutline=1;" parent="nTPzxVOP3XZ9Fk917l1m-4" vertex="1">
            <mxGeometry width="80" height="80" as="geometry" />
          </mxCell>
        </UserObject>
        <mxCell id="nTPzxVOP3XZ9Fk917l1m-9" value="Nombre_usuario" style="text;html=1;align=center;verticalAlign=middle;whiteSpace=wrap;rounded=0;" parent="nTPzxVOP3XZ9Fk917l1m-4" vertex="1">
          <mxGeometry x="573" y="25" width="93" height="30" as="geometry" />
        </mxCell>
        <mxCell id="nTPzxVOP3XZ9Fk917l1m-10" value="" style="shape=sumEllipse;perimeter=ellipsePerimeter;whiteSpace=wrap;html=1;backgroundOutline=1;" parent="nTPzxVOP3XZ9Fk917l1m-4" vertex="1">
          <mxGeometry x="533" y="20" width="40" height="40" as="geometry" />
        </mxCell>
        <UserObject label="Audios&lt;span style=&quot;color: rgba(0, 0, 0, 0); font-family: monospace; font-size: 0px; text-align: start; text-wrap: nowrap;&quot;&gt;%3CmxGraphModel%3E%3Croot%3E%3CmxCell%20id%3D%220%22%2F%3E%3CmxCell%20id%3D%221%22%20parent%3D%220%22%2F%3E%3CmxCell%20id%3D%222%22%20value%3D%22Cerrar%20Sesi%C3%B3n%22%20style%3D%22text%3Bhtml%3D1%3Balign%3Dcenter%3BverticalAlign%3Dmiddle%3BwhiteSpace%3Dwrap%3Brounded%3D0%3B%22%20vertex%3D%221%22%20parent%3D%221%22%3E%3CmxGeometry%20x%3D%22720%22%20y%3D%2225%22%20width%3D%2293%22%20height%3D%2230%22%20as%3D%22geometry%22%2F%3E%3C%2FmxCell%3E%3CmxCell%20id%3D%223%22%20value%3D%22%22%20style%3D%22shape%3DsumEllipse%3Bperimeter%3DellipsePerimeter%3BwhiteSpace%3Dwrap%3Bhtml%3D1%3BbackgroundOutline%3D1%3B%22%20vertex%3D%221%22%20parent%3D%221%22%3E%3CmxGeometry%20x%3D%22680%22%20y%3D%2220%22%20width%3D%2240%22%20height%3D%2240%22%20as%3D%22geometry%22%2F%3E%3C%2FmxCell%3E%3C%2Froot%3E%3C%2FmxGraphModel%3E&lt;/span&gt;" link="data:page/id,VksMP-APIKd3p9qy1frE" id="nTPzxVOP3XZ9Fk917l1m-11">
          <mxCell style="text;html=1;align=center;verticalAlign=middle;whiteSpace=wrap;rounded=0;" parent="nTPzxVOP3XZ9Fk917l1m-4" vertex="1">
            <mxGeometry x="120" y="25" width="93" height="30" as="geometry" />
          </mxCell>
        </UserObject>
        <UserObject label="" link="data:page/id,VksMP-APIKd3p9qy1frE" id="nTPzxVOP3XZ9Fk917l1m-12">
          <mxCell style="shape=sumEllipse;perimeter=ellipsePerimeter;whiteSpace=wrap;html=1;backgroundOutline=1;" parent="nTPzxVOP3XZ9Fk917l1m-4" vertex="1">
            <mxGeometry x="93" y="20" width="40" height="40" as="geometry" />
          </mxCell>
        </UserObject>
        <UserObject label="Libros/texto" link="data:page/id,VksMP-APIKd3p9qy1frE" id="nTPzxVOP3XZ9Fk917l1m-13">
          <mxCell style="text;html=1;align=center;verticalAlign=middle;whiteSpace=wrap;rounded=0;" parent="nTPzxVOP3XZ9Fk917l1m-4" vertex="1">
            <mxGeometry x="226" y="25" width="93" height="30" as="geometry" />
          </mxCell>
        </UserObject>
        <UserObject label="" link="data:page/id,VksMP-APIKd3p9qy1frE" id="nTPzxVOP3XZ9Fk917l1m-14">
          <mxCell style="shape=sumEllipse;perimeter=ellipsePerimeter;whiteSpace=wrap;html=1;backgroundOutline=1;" parent="nTPzxVOP3XZ9Fk917l1m-4" vertex="1">
            <mxGeometry x="193" y="20" width="40" height="40" as="geometry" />
          </mxCell>
        </UserObject>
        <UserObject label="Videos" link="data:page/id,VksMP-APIKd3p9qy1frE" id="nTPzxVOP3XZ9Fk917l1m-15">
          <mxCell style="text;html=1;align=center;verticalAlign=middle;whiteSpace=wrap;rounded=0;" parent="nTPzxVOP3XZ9Fk917l1m-4" vertex="1">
            <mxGeometry x="340" y="25" width="64" height="30" as="geometry" />
          </mxCell>
        </UserObject>
        <UserObject label="" link="data:page/id,VksMP-APIKd3p9qy1frE" id="nTPzxVOP3XZ9Fk917l1m-16">
          <mxCell style="shape=sumEllipse;perimeter=ellipsePerimeter;whiteSpace=wrap;html=1;backgroundOutline=1;" parent="nTPzxVOP3XZ9Fk917l1m-4" vertex="1">
            <mxGeometry x="306" y="20" width="40" height="40" as="geometry" />
          </mxCell>
        </UserObject>
        <UserObject label="Otros" link="data:page/id,VksMP-APIKd3p9qy1frE" id="nTPzxVOP3XZ9Fk917l1m-17">
          <mxCell style="text;html=1;align=center;verticalAlign=middle;whiteSpace=wrap;rounded=0;" parent="nTPzxVOP3XZ9Fk917l1m-4" vertex="1">
            <mxGeometry x="440" y="25" width="50" height="30" as="geometry" />
          </mxCell>
        </UserObject>
        <UserObject label="" link="data:page/id,VksMP-APIKd3p9qy1frE" id="nTPzxVOP3XZ9Fk917l1m-18">
          <mxCell style="shape=sumEllipse;perimeter=ellipsePerimeter;whiteSpace=wrap;html=1;backgroundOutline=1;" parent="nTPzxVOP3XZ9Fk917l1m-4" vertex="1">
            <mxGeometry x="400" y="20" width="40" height="40" as="geometry" />
          </mxCell>
        </UserObject>
        <UserObject label="" link="data:page/id,NIJT_eNwgPCjwMeY6-0-" id="nTPzxVOP3XZ9Fk917l1m-20">
          <mxCell style="group" parent="nTPzxVOP3XZ9Fk917l1m-4" vertex="1" connectable="0">
            <mxGeometry x="673" y="20" width="133" height="40" as="geometry" />
          </mxCell>
        </UserObject>
        <UserObject label="Cerrar Sesión" id="nTPzxVOP3XZ9Fk917l1m-7">
          <mxCell style="text;html=1;align=center;verticalAlign=middle;whiteSpace=wrap;rounded=0;" parent="nTPzxVOP3XZ9Fk917l1m-20" vertex="1">
            <mxGeometry x="40" y="5" width="93" height="30" as="geometry" />
          </mxCell>
        </UserObject>
        <mxCell id="nTPzxVOP3XZ9Fk917l1m-8" value="" style="shape=sumEllipse;perimeter=ellipsePerimeter;whiteSpace=wrap;html=1;backgroundOutline=1;" parent="nTPzxVOP3XZ9Fk917l1m-20" vertex="1">
          <mxGeometry width="40" height="40" as="geometry" />
        </mxCell>
        <mxCell id="A6lovFMEbpElm_leZUJ--1" value="" style="rounded=0;whiteSpace=wrap;html=1;" vertex="1" parent="nTPzxVOP3XZ9Fk917l1m-4">
          <mxGeometry y="80" width="820" height="220" as="geometry" />
        </mxCell>
        <mxCell id="A6lovFMEbpElm_leZUJ--2" value="" style="shape=sumEllipse;perimeter=ellipsePerimeter;whiteSpace=wrap;html=1;backgroundOutline=1;" vertex="1" parent="nTPzxVOP3XZ9Fk917l1m-4">
          <mxGeometry x="39.5" y="120" width="147" height="140" as="geometry" />
        </mxCell>
        <mxCell id="A6lovFMEbpElm_leZUJ--3" value="Texto de página principal" style="text;html=1;align=center;verticalAlign=middle;whiteSpace=wrap;rounded=0;" vertex="1" parent="nTPzxVOP3XZ9Fk917l1m-4">
          <mxGeometry x="330" y="175" width="160" height="30" as="geometry" />
        </mxCell>
        <mxCell id="A6lovFMEbpElm_leZUJ--4" value="" style="rounded=0;whiteSpace=wrap;html=1;" vertex="1" parent="nTPzxVOP3XZ9Fk917l1m-4">
          <mxGeometry y="300" width="820" height="860" as="geometry" />
        </mxCell>
        <mxCell id="A6lovFMEbpElm_leZUJ--6" value="&lt;b&gt;Buscador Texto&lt;/b&gt;" style="rounded=1;whiteSpace=wrap;html=1;" vertex="1" parent="nTPzxVOP3XZ9Fk917l1m-4">
          <mxGeometry x="150" y="320" width="460" height="30" as="geometry" />
        </mxCell>
        <mxCell id="A6lovFMEbpElm_leZUJ--7" value="Buscar" style="rounded=1;whiteSpace=wrap;html=1;" vertex="1" parent="nTPzxVOP3XZ9Fk917l1m-4">
          <mxGeometry x="673" y="320" width="77" height="30" as="geometry" />
        </mxCell>
        <mxCell id="A6lovFMEbpElm_leZUJ--63" value="" style="rounded=0;whiteSpace=wrap;html=1;" vertex="1" parent="nTPzxVOP3XZ9Fk917l1m-4">
          <mxGeometry x="22.5" y="440" width="17" height="20" as="geometry" />
        </mxCell>
        <mxCell id="A6lovFMEbpElm_leZUJ--64" value="Tipo Contenido" style="text;html=1;align=center;verticalAlign=middle;whiteSpace=wrap;rounded=0;" vertex="1" parent="nTPzxVOP3XZ9Fk917l1m-4">
          <mxGeometry x="22.5" y="390" width="87.5" height="30" as="geometry" />
        </mxCell>
        <mxCell id="A6lovFMEbpElm_leZUJ--65" value="" style="endArrow=none;html=1;rounded=0;" edge="1" parent="nTPzxVOP3XZ9Fk917l1m-4">
          <mxGeometry width="50" height="50" relative="1" as="geometry">
            <mxPoint x="26.25" y="420" as="sourcePoint" />
            <mxPoint x="106.25" y="420" as="targetPoint" />
          </mxGeometry>
        </mxCell>
        <mxCell id="A6lovFMEbpElm_leZUJ--67" value="Tipo Contenido" style="text;html=1;align=center;verticalAlign=middle;whiteSpace=wrap;rounded=0;" vertex="1" parent="nTPzxVOP3XZ9Fk917l1m-4">
          <mxGeometry x="39.5" y="435" width="90.5" height="30" as="geometry" />
        </mxCell>
        <mxCell id="A6lovFMEbpElm_leZUJ--68" value="" style="rounded=0;whiteSpace=wrap;html=1;" vertex="1" parent="nTPzxVOP3XZ9Fk917l1m-4">
          <mxGeometry x="22.5" y="470" width="17" height="20" as="geometry" />
        </mxCell>
        <mxCell id="A6lovFMEbpElm_leZUJ--69" value="Tipo Contenido" style="text;html=1;align=center;verticalAlign=middle;whiteSpace=wrap;rounded=0;" vertex="1" parent="nTPzxVOP3XZ9Fk917l1m-4">
          <mxGeometry x="39.5" y="465" width="90.5" height="30" as="geometry" />
        </mxCell>
        <mxCell id="A6lovFMEbpElm_leZUJ--70" value="" style="rounded=0;whiteSpace=wrap;html=1;" vertex="1" parent="nTPzxVOP3XZ9Fk917l1m-4">
          <mxGeometry x="22.5" y="495" width="17" height="20" as="geometry" />
        </mxCell>
        <mxCell id="A6lovFMEbpElm_leZUJ--71" value="Tipo Contenido" style="text;html=1;align=center;verticalAlign=middle;whiteSpace=wrap;rounded=0;" vertex="1" parent="nTPzxVOP3XZ9Fk917l1m-4">
          <mxGeometry x="39.5" y="490" width="90.5" height="30" as="geometry" />
        </mxCell>
        <mxCell id="A6lovFMEbpElm_leZUJ--72" value="" style="rounded=0;whiteSpace=wrap;html=1;" vertex="1" parent="nTPzxVOP3XZ9Fk917l1m-4">
          <mxGeometry x="22.5" y="520" width="17" height="20" as="geometry" />
        </mxCell>
        <mxCell id="A6lovFMEbpElm_leZUJ--73" value="Tipo Contenido" style="text;html=1;align=center;verticalAlign=middle;whiteSpace=wrap;rounded=0;" vertex="1" parent="nTPzxVOP3XZ9Fk917l1m-4">
          <mxGeometry x="39.5" y="515" width="90.5" height="30" as="geometry" />
        </mxCell>
        <mxCell id="A6lovFMEbpElm_leZUJ--5" value="" style="rounded=0;whiteSpace=wrap;html=1;" vertex="1" parent="1">
          <mxGeometry x="150" y="380" width="670" height="780" as="geometry" />
        </mxCell>
        <mxCell id="A6lovFMEbpElm_leZUJ--13" value="" style="group" vertex="1" connectable="0" parent="1">
          <mxGeometry x="180" y="410" width="170" height="200" as="geometry" />
        </mxCell>
        <mxCell id="A6lovFMEbpElm_leZUJ--8" value="" style="rounded=1;whiteSpace=wrap;html=1;movable=1;resizable=1;rotatable=1;deletable=1;editable=1;locked=0;connectable=1;" vertex="1" parent="A6lovFMEbpElm_leZUJ--13">
          <mxGeometry width="170" height="200" as="geometry" />
        </mxCell>
        <mxCell id="A6lovFMEbpElm_leZUJ--9" value="" style="rounded=0;whiteSpace=wrap;html=1;movable=1;resizable=1;rotatable=1;deletable=1;editable=1;locked=0;connectable=1;" vertex="1" parent="A6lovFMEbpElm_leZUJ--13">
          <mxGeometry x="10" y="10" width="150" height="110" as="geometry" />
        </mxCell>
        <mxCell id="A6lovFMEbpElm_leZUJ--10" value="" style="endArrow=none;html=1;rounded=0;exitX=0;exitY=0;exitDx=0;exitDy=0;entryX=1;entryY=1;entryDx=0;entryDy=0;movable=1;resizable=1;rotatable=1;deletable=1;editable=1;locked=0;connectable=1;" edge="1" parent="A6lovFMEbpElm_leZUJ--13" source="A6lovFMEbpElm_leZUJ--9" target="A6lovFMEbpElm_leZUJ--9">
          <mxGeometry width="50" height="50" relative="1" as="geometry">
            <mxPoint x="210" y="160" as="sourcePoint" />
            <mxPoint x="260" y="110" as="targetPoint" />
          </mxGeometry>
        </mxCell>
        <mxCell id="A6lovFMEbpElm_leZUJ--11" value="" style="endArrow=none;html=1;rounded=0;exitX=0;exitY=1;exitDx=0;exitDy=0;entryX=1;entryY=0;entryDx=0;entryDy=0;movable=1;resizable=1;rotatable=1;deletable=1;editable=1;locked=0;connectable=1;" edge="1" parent="A6lovFMEbpElm_leZUJ--13" source="A6lovFMEbpElm_leZUJ--9" target="A6lovFMEbpElm_leZUJ--9">
          <mxGeometry width="50" height="50" relative="1" as="geometry">
            <mxPoint x="210" y="160" as="sourcePoint" />
            <mxPoint x="260" y="110" as="targetPoint" />
          </mxGeometry>
        </mxCell>
        <mxCell id="A6lovFMEbpElm_leZUJ--12" value="Nombre" style="text;html=1;align=center;verticalAlign=middle;whiteSpace=wrap;rounded=0;movable=1;resizable=1;rotatable=1;deletable=1;editable=1;locked=0;connectable=1;" vertex="1" parent="A6lovFMEbpElm_leZUJ--13">
          <mxGeometry x="55" y="140" width="60" height="30" as="geometry" />
        </mxCell>
        <mxCell id="A6lovFMEbpElm_leZUJ--14" value="" style="group" vertex="1" connectable="0" parent="1">
          <mxGeometry x="400" y="410" width="170" height="200" as="geometry" />
        </mxCell>
        <mxCell id="A6lovFMEbpElm_leZUJ--15" value="" style="rounded=1;whiteSpace=wrap;html=1;movable=1;resizable=1;rotatable=1;deletable=1;editable=1;locked=0;connectable=1;" vertex="1" parent="A6lovFMEbpElm_leZUJ--14">
          <mxGeometry width="170" height="200" as="geometry" />
        </mxCell>
        <mxCell id="A6lovFMEbpElm_leZUJ--16" value="" style="rounded=0;whiteSpace=wrap;html=1;movable=1;resizable=1;rotatable=1;deletable=1;editable=1;locked=0;connectable=1;" vertex="1" parent="A6lovFMEbpElm_leZUJ--14">
          <mxGeometry x="10" y="10" width="150" height="110" as="geometry" />
        </mxCell>
        <mxCell id="A6lovFMEbpElm_leZUJ--17" value="" style="endArrow=none;html=1;rounded=0;exitX=0;exitY=0;exitDx=0;exitDy=0;entryX=1;entryY=1;entryDx=0;entryDy=0;movable=1;resizable=1;rotatable=1;deletable=1;editable=1;locked=0;connectable=1;" edge="1" parent="A6lovFMEbpElm_leZUJ--14" source="A6lovFMEbpElm_leZUJ--16" target="A6lovFMEbpElm_leZUJ--16">
          <mxGeometry width="50" height="50" relative="1" as="geometry">
            <mxPoint x="210" y="160" as="sourcePoint" />
            <mxPoint x="260" y="110" as="targetPoint" />
          </mxGeometry>
        </mxCell>
        <mxCell id="A6lovFMEbpElm_leZUJ--18" value="" style="endArrow=none;html=1;rounded=0;exitX=0;exitY=1;exitDx=0;exitDy=0;entryX=1;entryY=0;entryDx=0;entryDy=0;movable=1;resizable=1;rotatable=1;deletable=1;editable=1;locked=0;connectable=1;" edge="1" parent="A6lovFMEbpElm_leZUJ--14" source="A6lovFMEbpElm_leZUJ--16" target="A6lovFMEbpElm_leZUJ--16">
          <mxGeometry width="50" height="50" relative="1" as="geometry">
            <mxPoint x="210" y="160" as="sourcePoint" />
            <mxPoint x="260" y="110" as="targetPoint" />
          </mxGeometry>
        </mxCell>
        <mxCell id="A6lovFMEbpElm_leZUJ--19" value="Nombre" style="text;html=1;align=center;verticalAlign=middle;whiteSpace=wrap;rounded=0;movable=1;resizable=1;rotatable=1;deletable=1;editable=1;locked=0;connectable=1;" vertex="1" parent="A6lovFMEbpElm_leZUJ--14">
          <mxGeometry x="55" y="140" width="60" height="30" as="geometry" />
        </mxCell>
        <mxCell id="A6lovFMEbpElm_leZUJ--20" value="" style="group" vertex="1" connectable="0" parent="1">
          <mxGeometry x="620" y="410" width="200" height="750" as="geometry" />
        </mxCell>
        <mxCell id="A6lovFMEbpElm_leZUJ--21" value="" style="rounded=1;whiteSpace=wrap;html=1;movable=1;resizable=1;rotatable=1;deletable=1;editable=1;locked=0;connectable=1;" vertex="1" parent="A6lovFMEbpElm_leZUJ--20">
          <mxGeometry width="170" height="200" as="geometry" />
        </mxCell>
        <mxCell id="A6lovFMEbpElm_leZUJ--22" value="" style="rounded=0;whiteSpace=wrap;html=1;movable=1;resizable=1;rotatable=1;deletable=1;editable=1;locked=0;connectable=1;" vertex="1" parent="A6lovFMEbpElm_leZUJ--20">
          <mxGeometry x="10" y="10" width="150" height="110" as="geometry" />
        </mxCell>
        <mxCell id="A6lovFMEbpElm_leZUJ--23" value="" style="endArrow=none;html=1;rounded=0;exitX=0;exitY=0;exitDx=0;exitDy=0;entryX=1;entryY=1;entryDx=0;entryDy=0;movable=1;resizable=1;rotatable=1;deletable=1;editable=1;locked=0;connectable=1;" edge="1" parent="A6lovFMEbpElm_leZUJ--20" source="A6lovFMEbpElm_leZUJ--22" target="A6lovFMEbpElm_leZUJ--22">
          <mxGeometry width="50" height="50" relative="1" as="geometry">
            <mxPoint x="210" y="160" as="sourcePoint" />
            <mxPoint x="260" y="110" as="targetPoint" />
          </mxGeometry>
        </mxCell>
        <mxCell id="A6lovFMEbpElm_leZUJ--24" value="" style="endArrow=none;html=1;rounded=0;exitX=0;exitY=1;exitDx=0;exitDy=0;entryX=1;entryY=0;entryDx=0;entryDy=0;movable=1;resizable=1;rotatable=1;deletable=1;editable=1;locked=0;connectable=1;" edge="1" parent="A6lovFMEbpElm_leZUJ--20" source="A6lovFMEbpElm_leZUJ--22" target="A6lovFMEbpElm_leZUJ--22">
          <mxGeometry width="50" height="50" relative="1" as="geometry">
            <mxPoint x="210" y="160" as="sourcePoint" />
            <mxPoint x="260" y="110" as="targetPoint" />
          </mxGeometry>
        </mxCell>
        <mxCell id="A6lovFMEbpElm_leZUJ--25" value="Nombre" style="text;html=1;align=center;verticalAlign=middle;whiteSpace=wrap;rounded=0;movable=1;resizable=1;rotatable=1;deletable=1;editable=1;locked=0;connectable=1;" vertex="1" parent="A6lovFMEbpElm_leZUJ--20">
          <mxGeometry x="55" y="140" width="60" height="30" as="geometry" />
        </mxCell>
        <mxCell id="A6lovFMEbpElm_leZUJ--76" value="" style="rounded=0;whiteSpace=wrap;html=1;" vertex="1" parent="A6lovFMEbpElm_leZUJ--20">
          <mxGeometry x="180" y="-30" width="20" height="780" as="geometry" />
        </mxCell>
        <mxCell id="A6lovFMEbpElm_leZUJ--77" value="" style="shape=flexArrow;endArrow=classic;html=1;rounded=0;width=2;endSize=4.33;endWidth=12;" edge="1" parent="A6lovFMEbpElm_leZUJ--20">
          <mxGeometry width="50" height="50" relative="1" as="geometry">
            <mxPoint x="189.5" y="700" as="sourcePoint" />
            <mxPoint x="189.5" y="750" as="targetPoint" />
          </mxGeometry>
        </mxCell>
        <mxCell id="A6lovFMEbpElm_leZUJ--79" value="" style="shape=flexArrow;endArrow=classic;html=1;rounded=0;width=2;endSize=4.33;endWidth=12;" edge="1" parent="A6lovFMEbpElm_leZUJ--20">
          <mxGeometry width="50" height="50" relative="1" as="geometry">
            <mxPoint x="189.5" y="20" as="sourcePoint" />
            <mxPoint x="189.5" y="-30" as="targetPoint" />
          </mxGeometry>
        </mxCell>
        <mxCell id="A6lovFMEbpElm_leZUJ--84" value="" style="endArrow=none;html=1;rounded=0;" edge="1" parent="A6lovFMEbpElm_leZUJ--20">
          <mxGeometry width="50" height="50" relative="1" as="geometry">
            <mxPoint x="180" y="690" as="sourcePoint" />
            <mxPoint x="200" y="690" as="targetPoint" />
          </mxGeometry>
        </mxCell>
        <mxCell id="A6lovFMEbpElm_leZUJ--83" value="" style="endArrow=none;html=1;rounded=0;" edge="1" parent="A6lovFMEbpElm_leZUJ--20">
          <mxGeometry width="50" height="50" relative="1" as="geometry">
            <mxPoint x="180" y="30" as="sourcePoint" />
            <mxPoint x="200" y="30" as="targetPoint" />
          </mxGeometry>
        </mxCell>
        <mxCell id="A6lovFMEbpElm_leZUJ--26" value="" style="group" vertex="1" connectable="0" parent="1">
          <mxGeometry x="180" y="630" width="170" height="200" as="geometry" />
        </mxCell>
        <mxCell id="A6lovFMEbpElm_leZUJ--27" value="" style="rounded=1;whiteSpace=wrap;html=1;movable=1;resizable=1;rotatable=1;deletable=1;editable=1;locked=0;connectable=1;" vertex="1" parent="A6lovFMEbpElm_leZUJ--26">
          <mxGeometry width="170" height="200" as="geometry" />
        </mxCell>
        <mxCell id="A6lovFMEbpElm_leZUJ--28" value="" style="rounded=0;whiteSpace=wrap;html=1;movable=1;resizable=1;rotatable=1;deletable=1;editable=1;locked=0;connectable=1;" vertex="1" parent="A6lovFMEbpElm_leZUJ--26">
          <mxGeometry x="10" y="10" width="150" height="110" as="geometry" />
        </mxCell>
        <mxCell id="A6lovFMEbpElm_leZUJ--29" value="" style="endArrow=none;html=1;rounded=0;exitX=0;exitY=0;exitDx=0;exitDy=0;entryX=1;entryY=1;entryDx=0;entryDy=0;movable=1;resizable=1;rotatable=1;deletable=1;editable=1;locked=0;connectable=1;" edge="1" parent="A6lovFMEbpElm_leZUJ--26" source="A6lovFMEbpElm_leZUJ--28" target="A6lovFMEbpElm_leZUJ--28">
          <mxGeometry width="50" height="50" relative="1" as="geometry">
            <mxPoint x="210" y="160" as="sourcePoint" />
            <mxPoint x="260" y="110" as="targetPoint" />
          </mxGeometry>
        </mxCell>
        <mxCell id="A6lovFMEbpElm_leZUJ--30" value="" style="endArrow=none;html=1;rounded=0;exitX=0;exitY=1;exitDx=0;exitDy=0;entryX=1;entryY=0;entryDx=0;entryDy=0;movable=1;resizable=1;rotatable=1;deletable=1;editable=1;locked=0;connectable=1;" edge="1" parent="A6lovFMEbpElm_leZUJ--26" source="A6lovFMEbpElm_leZUJ--28" target="A6lovFMEbpElm_leZUJ--28">
          <mxGeometry width="50" height="50" relative="1" as="geometry">
            <mxPoint x="210" y="160" as="sourcePoint" />
            <mxPoint x="260" y="110" as="targetPoint" />
          </mxGeometry>
        </mxCell>
        <mxCell id="A6lovFMEbpElm_leZUJ--31" value="Nombre" style="text;html=1;align=center;verticalAlign=middle;whiteSpace=wrap;rounded=0;movable=1;resizable=1;rotatable=1;deletable=1;editable=1;locked=0;connectable=1;" vertex="1" parent="A6lovFMEbpElm_leZUJ--26">
          <mxGeometry x="55" y="140" width="60" height="30" as="geometry" />
        </mxCell>
        <mxCell id="A6lovFMEbpElm_leZUJ--33" value="" style="group" vertex="1" connectable="0" parent="1">
          <mxGeometry x="180" y="870" width="170" height="200" as="geometry" />
        </mxCell>
        <mxCell id="A6lovFMEbpElm_leZUJ--34" value="" style="rounded=1;whiteSpace=wrap;html=1;movable=1;resizable=1;rotatable=1;deletable=1;editable=1;locked=0;connectable=1;" vertex="1" parent="A6lovFMEbpElm_leZUJ--33">
          <mxGeometry width="170" height="200" as="geometry" />
        </mxCell>
        <mxCell id="A6lovFMEbpElm_leZUJ--35" value="" style="rounded=0;whiteSpace=wrap;html=1;movable=1;resizable=1;rotatable=1;deletable=1;editable=1;locked=0;connectable=1;" vertex="1" parent="A6lovFMEbpElm_leZUJ--33">
          <mxGeometry x="10" y="10" width="150" height="110" as="geometry" />
        </mxCell>
        <mxCell id="A6lovFMEbpElm_leZUJ--36" value="" style="endArrow=none;html=1;rounded=0;exitX=0;exitY=0;exitDx=0;exitDy=0;entryX=1;entryY=1;entryDx=0;entryDy=0;movable=1;resizable=1;rotatable=1;deletable=1;editable=1;locked=0;connectable=1;" edge="1" parent="A6lovFMEbpElm_leZUJ--33" source="A6lovFMEbpElm_leZUJ--35" target="A6lovFMEbpElm_leZUJ--35">
          <mxGeometry width="50" height="50" relative="1" as="geometry">
            <mxPoint x="210" y="160" as="sourcePoint" />
            <mxPoint x="260" y="110" as="targetPoint" />
          </mxGeometry>
        </mxCell>
        <mxCell id="A6lovFMEbpElm_leZUJ--37" value="" style="endArrow=none;html=1;rounded=0;exitX=0;exitY=1;exitDx=0;exitDy=0;entryX=1;entryY=0;entryDx=0;entryDy=0;movable=1;resizable=1;rotatable=1;deletable=1;editable=1;locked=0;connectable=1;" edge="1" parent="A6lovFMEbpElm_leZUJ--33" source="A6lovFMEbpElm_leZUJ--35" target="A6lovFMEbpElm_leZUJ--35">
          <mxGeometry width="50" height="50" relative="1" as="geometry">
            <mxPoint x="210" y="160" as="sourcePoint" />
            <mxPoint x="260" y="110" as="targetPoint" />
          </mxGeometry>
        </mxCell>
        <mxCell id="A6lovFMEbpElm_leZUJ--38" value="Nombre" style="text;html=1;align=center;verticalAlign=middle;whiteSpace=wrap;rounded=0;movable=1;resizable=1;rotatable=1;deletable=1;editable=1;locked=0;connectable=1;" vertex="1" parent="A6lovFMEbpElm_leZUJ--33">
          <mxGeometry x="55" y="140" width="60" height="30" as="geometry" />
        </mxCell>
        <mxCell id="A6lovFMEbpElm_leZUJ--39" value="" style="group" vertex="1" connectable="0" parent="1">
          <mxGeometry x="400" y="630" width="170" height="200" as="geometry" />
        </mxCell>
        <mxCell id="A6lovFMEbpElm_leZUJ--40" value="" style="rounded=1;whiteSpace=wrap;html=1;movable=1;resizable=1;rotatable=1;deletable=1;editable=1;locked=0;connectable=1;" vertex="1" parent="A6lovFMEbpElm_leZUJ--39">
          <mxGeometry width="170" height="200" as="geometry" />
        </mxCell>
        <mxCell id="A6lovFMEbpElm_leZUJ--41" value="" style="rounded=0;whiteSpace=wrap;html=1;movable=1;resizable=1;rotatable=1;deletable=1;editable=1;locked=0;connectable=1;" vertex="1" parent="A6lovFMEbpElm_leZUJ--39">
          <mxGeometry x="10" y="10" width="150" height="110" as="geometry" />
        </mxCell>
        <mxCell id="A6lovFMEbpElm_leZUJ--42" value="" style="endArrow=none;html=1;rounded=0;exitX=0;exitY=0;exitDx=0;exitDy=0;entryX=1;entryY=1;entryDx=0;entryDy=0;movable=1;resizable=1;rotatable=1;deletable=1;editable=1;locked=0;connectable=1;" edge="1" parent="A6lovFMEbpElm_leZUJ--39" source="A6lovFMEbpElm_leZUJ--41" target="A6lovFMEbpElm_leZUJ--41">
          <mxGeometry width="50" height="50" relative="1" as="geometry">
            <mxPoint x="210" y="160" as="sourcePoint" />
            <mxPoint x="260" y="110" as="targetPoint" />
          </mxGeometry>
        </mxCell>
        <mxCell id="A6lovFMEbpElm_leZUJ--43" value="" style="endArrow=none;html=1;rounded=0;exitX=0;exitY=1;exitDx=0;exitDy=0;entryX=1;entryY=0;entryDx=0;entryDy=0;movable=1;resizable=1;rotatable=1;deletable=1;editable=1;locked=0;connectable=1;" edge="1" parent="A6lovFMEbpElm_leZUJ--39" source="A6lovFMEbpElm_leZUJ--41" target="A6lovFMEbpElm_leZUJ--41">
          <mxGeometry width="50" height="50" relative="1" as="geometry">
            <mxPoint x="210" y="160" as="sourcePoint" />
            <mxPoint x="260" y="110" as="targetPoint" />
          </mxGeometry>
        </mxCell>
        <mxCell id="A6lovFMEbpElm_leZUJ--44" value="Nombre" style="text;html=1;align=center;verticalAlign=middle;whiteSpace=wrap;rounded=0;movable=1;resizable=1;rotatable=1;deletable=1;editable=1;locked=0;connectable=1;" vertex="1" parent="A6lovFMEbpElm_leZUJ--39">
          <mxGeometry x="55" y="140" width="60" height="30" as="geometry" />
        </mxCell>
        <mxCell id="A6lovFMEbpElm_leZUJ--45" value="" style="group" vertex="1" connectable="0" parent="1">
          <mxGeometry x="400" y="870" width="170" height="200" as="geometry" />
        </mxCell>
        <mxCell id="A6lovFMEbpElm_leZUJ--46" value="" style="rounded=1;whiteSpace=wrap;html=1;movable=1;resizable=1;rotatable=1;deletable=1;editable=1;locked=0;connectable=1;" vertex="1" parent="A6lovFMEbpElm_leZUJ--45">
          <mxGeometry width="170" height="200" as="geometry" />
        </mxCell>
        <mxCell id="A6lovFMEbpElm_leZUJ--47" value="" style="rounded=0;whiteSpace=wrap;html=1;movable=1;resizable=1;rotatable=1;deletable=1;editable=1;locked=0;connectable=1;" vertex="1" parent="A6lovFMEbpElm_leZUJ--45">
          <mxGeometry x="10" y="10" width="150" height="110" as="geometry" />
        </mxCell>
        <mxCell id="A6lovFMEbpElm_leZUJ--48" value="" style="endArrow=none;html=1;rounded=0;exitX=0;exitY=0;exitDx=0;exitDy=0;entryX=1;entryY=1;entryDx=0;entryDy=0;movable=1;resizable=1;rotatable=1;deletable=1;editable=1;locked=0;connectable=1;" edge="1" parent="A6lovFMEbpElm_leZUJ--45" source="A6lovFMEbpElm_leZUJ--47" target="A6lovFMEbpElm_leZUJ--47">
          <mxGeometry width="50" height="50" relative="1" as="geometry">
            <mxPoint x="210" y="160" as="sourcePoint" />
            <mxPoint x="260" y="110" as="targetPoint" />
          </mxGeometry>
        </mxCell>
        <mxCell id="A6lovFMEbpElm_leZUJ--49" value="" style="endArrow=none;html=1;rounded=0;exitX=0;exitY=1;exitDx=0;exitDy=0;entryX=1;entryY=0;entryDx=0;entryDy=0;movable=1;resizable=1;rotatable=1;deletable=1;editable=1;locked=0;connectable=1;" edge="1" parent="A6lovFMEbpElm_leZUJ--45" source="A6lovFMEbpElm_leZUJ--47" target="A6lovFMEbpElm_leZUJ--47">
          <mxGeometry width="50" height="50" relative="1" as="geometry">
            <mxPoint x="210" y="160" as="sourcePoint" />
            <mxPoint x="260" y="110" as="targetPoint" />
          </mxGeometry>
        </mxCell>
        <mxCell id="A6lovFMEbpElm_leZUJ--50" value="Nombre" style="text;html=1;align=center;verticalAlign=middle;whiteSpace=wrap;rounded=0;movable=1;resizable=1;rotatable=1;deletable=1;editable=1;locked=0;connectable=1;" vertex="1" parent="A6lovFMEbpElm_leZUJ--45">
          <mxGeometry x="55" y="140" width="60" height="30" as="geometry" />
        </mxCell>
        <mxCell id="A6lovFMEbpElm_leZUJ--51" value="" style="group" vertex="1" connectable="0" parent="1">
          <mxGeometry x="620" y="630" width="170" height="200" as="geometry" />
        </mxCell>
        <mxCell id="A6lovFMEbpElm_leZUJ--52" value="" style="rounded=1;whiteSpace=wrap;html=1;movable=1;resizable=1;rotatable=1;deletable=1;editable=1;locked=0;connectable=1;" vertex="1" parent="A6lovFMEbpElm_leZUJ--51">
          <mxGeometry width="170" height="200" as="geometry" />
        </mxCell>
        <mxCell id="A6lovFMEbpElm_leZUJ--53" value="" style="rounded=0;whiteSpace=wrap;html=1;movable=1;resizable=1;rotatable=1;deletable=1;editable=1;locked=0;connectable=1;" vertex="1" parent="A6lovFMEbpElm_leZUJ--51">
          <mxGeometry x="10" y="10" width="150" height="110" as="geometry" />
        </mxCell>
        <mxCell id="A6lovFMEbpElm_leZUJ--54" value="" style="endArrow=none;html=1;rounded=0;exitX=0;exitY=0;exitDx=0;exitDy=0;entryX=1;entryY=1;entryDx=0;entryDy=0;movable=1;resizable=1;rotatable=1;deletable=1;editable=1;locked=0;connectable=1;" edge="1" parent="A6lovFMEbpElm_leZUJ--51" source="A6lovFMEbpElm_leZUJ--53" target="A6lovFMEbpElm_leZUJ--53">
          <mxGeometry width="50" height="50" relative="1" as="geometry">
            <mxPoint x="210" y="160" as="sourcePoint" />
            <mxPoint x="260" y="110" as="targetPoint" />
          </mxGeometry>
        </mxCell>
        <mxCell id="A6lovFMEbpElm_leZUJ--55" value="" style="endArrow=none;html=1;rounded=0;exitX=0;exitY=1;exitDx=0;exitDy=0;entryX=1;entryY=0;entryDx=0;entryDy=0;movable=1;resizable=1;rotatable=1;deletable=1;editable=1;locked=0;connectable=1;" edge="1" parent="A6lovFMEbpElm_leZUJ--51" source="A6lovFMEbpElm_leZUJ--53" target="A6lovFMEbpElm_leZUJ--53">
          <mxGeometry width="50" height="50" relative="1" as="geometry">
            <mxPoint x="210" y="160" as="sourcePoint" />
            <mxPoint x="260" y="110" as="targetPoint" />
          </mxGeometry>
        </mxCell>
        <mxCell id="A6lovFMEbpElm_leZUJ--56" value="Nombre" style="text;html=1;align=center;verticalAlign=middle;whiteSpace=wrap;rounded=0;movable=1;resizable=1;rotatable=1;deletable=1;editable=1;locked=0;connectable=1;" vertex="1" parent="A6lovFMEbpElm_leZUJ--51">
          <mxGeometry x="55" y="140" width="60" height="30" as="geometry" />
        </mxCell>
        <mxCell id="A6lovFMEbpElm_leZUJ--57" value="" style="group" vertex="1" connectable="0" parent="1">
          <mxGeometry x="620" y="870" width="170" height="200" as="geometry" />
        </mxCell>
        <mxCell id="A6lovFMEbpElm_leZUJ--58" value="" style="rounded=1;whiteSpace=wrap;html=1;movable=1;resizable=1;rotatable=1;deletable=1;editable=1;locked=0;connectable=1;" vertex="1" parent="A6lovFMEbpElm_leZUJ--57">
          <mxGeometry width="170" height="200" as="geometry" />
        </mxCell>
        <mxCell id="A6lovFMEbpElm_leZUJ--59" value="" style="rounded=0;whiteSpace=wrap;html=1;movable=1;resizable=1;rotatable=1;deletable=1;editable=1;locked=0;connectable=1;" vertex="1" parent="A6lovFMEbpElm_leZUJ--57">
          <mxGeometry x="10" y="10" width="150" height="110" as="geometry" />
        </mxCell>
        <mxCell id="A6lovFMEbpElm_leZUJ--60" value="" style="endArrow=none;html=1;rounded=0;exitX=0;exitY=0;exitDx=0;exitDy=0;entryX=1;entryY=1;entryDx=0;entryDy=0;movable=1;resizable=1;rotatable=1;deletable=1;editable=1;locked=0;connectable=1;" edge="1" parent="A6lovFMEbpElm_leZUJ--57" source="A6lovFMEbpElm_leZUJ--59" target="A6lovFMEbpElm_leZUJ--59">
          <mxGeometry width="50" height="50" relative="1" as="geometry">
            <mxPoint x="210" y="160" as="sourcePoint" />
            <mxPoint x="260" y="110" as="targetPoint" />
          </mxGeometry>
        </mxCell>
        <mxCell id="A6lovFMEbpElm_leZUJ--61" value="" style="endArrow=none;html=1;rounded=0;exitX=0;exitY=1;exitDx=0;exitDy=0;entryX=1;entryY=0;entryDx=0;entryDy=0;movable=1;resizable=1;rotatable=1;deletable=1;editable=1;locked=0;connectable=1;" edge="1" parent="A6lovFMEbpElm_leZUJ--57" source="A6lovFMEbpElm_leZUJ--59" target="A6lovFMEbpElm_leZUJ--59">
          <mxGeometry width="50" height="50" relative="1" as="geometry">
            <mxPoint x="210" y="160" as="sourcePoint" />
            <mxPoint x="260" y="110" as="targetPoint" />
          </mxGeometry>
        </mxCell>
        <mxCell id="A6lovFMEbpElm_leZUJ--62" value="Nombre" style="text;html=1;align=center;verticalAlign=middle;whiteSpace=wrap;rounded=0;movable=1;resizable=1;rotatable=1;deletable=1;editable=1;locked=0;connectable=1;" vertex="1" parent="A6lovFMEbpElm_leZUJ--57">
          <mxGeometry x="55" y="140" width="60" height="30" as="geometry" />
        </mxCell>
        <UserObject label="" link="data:page/id,IAW55RW-1b6eh70SpbsO" id="jp6qO1GIlHLFiXAb5vrY-1">
          <mxCell style="shape=flexArrow;endArrow=classic;html=1;rounded=0;" edge="1" parent="1">
            <mxGeometry width="50" height="50" relative="1" as="geometry">
              <mxPoint x="510" y="60" as="sourcePoint" />
              <mxPoint x="510" y="20" as="targetPoint" />
            </mxGeometry>
          </mxCell>
        </UserObject>
      </root>
    </mxGraphModel>
  </diagram>
  <diagram id="VksMP-APIKd3p9qy1frE" name="Plantilla Contenido">
    <mxGraphModel dx="1434" dy="780" grid="1" gridSize="10" guides="1" tooltips="1" connect="1" arrows="1" fold="1" page="1" pageScale="1" pageWidth="827" pageHeight="1169" math="0" shadow="0">
      <root>
        <mxCell id="0" />
        <mxCell id="1" parent="0" />
        <mxCell id="nf4EPVGC-yHhYcDJMPQ9-1" value="" style="group" vertex="1" connectable="0" parent="1">
          <mxGeometry width="820" height="1160" as="geometry" />
        </mxCell>
        <mxCell id="nf4EPVGC-yHhYcDJMPQ9-2" value="" style="rounded=0;whiteSpace=wrap;html=1;" vertex="1" parent="nf4EPVGC-yHhYcDJMPQ9-1">
          <mxGeometry width="820" height="1160" as="geometry" />
        </mxCell>
        <mxCell id="nf4EPVGC-yHhYcDJMPQ9-3" value="" style="rounded=0;whiteSpace=wrap;html=1;" vertex="1" parent="nf4EPVGC-yHhYcDJMPQ9-1">
          <mxGeometry width="820" height="80" as="geometry" />
        </mxCell>
        <UserObject label="" link="data:page/id,C5XJyP3ficeGiDk7JTWP" id="nf4EPVGC-yHhYcDJMPQ9-4">
          <mxCell style="shape=sumEllipse;perimeter=ellipsePerimeter;whiteSpace=wrap;html=1;backgroundOutline=1;" vertex="1" parent="nf4EPVGC-yHhYcDJMPQ9-1">
            <mxGeometry width="80" height="80" as="geometry" />
          </mxCell>
        </UserObject>
        <UserObject label="Nombre_usuario" link="data:page/id,Elu9vbW6ZCP34hRs17hx" id="nf4EPVGC-yHhYcDJMPQ9-5">
          <mxCell style="text;html=1;align=center;verticalAlign=middle;whiteSpace=wrap;rounded=0;" vertex="1" parent="nf4EPVGC-yHhYcDJMPQ9-1">
            <mxGeometry x="573" y="25" width="93" height="30" as="geometry" />
          </mxCell>
        </UserObject>
        <UserObject label="" link="data:page/id,Elu9vbW6ZCP34hRs17hx" id="nf4EPVGC-yHhYcDJMPQ9-6">
          <mxCell style="shape=sumEllipse;perimeter=ellipsePerimeter;whiteSpace=wrap;html=1;backgroundOutline=1;" vertex="1" parent="nf4EPVGC-yHhYcDJMPQ9-1">
            <mxGeometry x="533" y="20" width="40" height="40" as="geometry" />
          </mxCell>
        </UserObject>
        <UserObject label="Audios&lt;span style=&quot;color: rgba(0, 0, 0, 0); font-family: monospace; font-size: 0px; text-align: start; text-wrap: nowrap;&quot;&gt;%3CmxGraphModel%3E%3Croot%3E%3CmxCell%20id%3D%220%22%2F%3E%3CmxCell%20id%3D%221%22%20parent%3D%220%22%2F%3E%3CmxCell%20id%3D%222%22%20value%3D%22Cerrar%20Sesi%C3%B3n%22%20style%3D%22text%3Bhtml%3D1%3Balign%3Dcenter%3BverticalAlign%3Dmiddle%3BwhiteSpace%3Dwrap%3Brounded%3D0%3B%22%20vertex%3D%221%22%20parent%3D%221%22%3E%3CmxGeometry%20x%3D%22720%22%20y%3D%2225%22%20width%3D%2293%22%20height%3D%2230%22%20as%3D%22geometry%22%2F%3E%3C%2FmxCell%3E%3CmxCell%20id%3D%223%22%20value%3D%22%22%20style%3D%22shape%3DsumEllipse%3Bperimeter%3DellipsePerimeter%3BwhiteSpace%3Dwrap%3Bhtml%3D1%3BbackgroundOutline%3D1%3B%22%20vertex%3D%221%22%20parent%3D%221%22%3E%3CmxGeometry%20x%3D%22680%22%20y%3D%2220%22%20width%3D%2240%22%20height%3D%2240%22%20as%3D%22geometry%22%2F%3E%3C%2FmxCell%3E%3C%2Froot%3E%3C%2FmxGraphModel%3E&lt;/span&gt;" link="data:page/id,VksMP-APIKd3p9qy1frE" id="nf4EPVGC-yHhYcDJMPQ9-7">
          <mxCell style="text;html=1;align=center;verticalAlign=middle;whiteSpace=wrap;rounded=0;" vertex="1" parent="nf4EPVGC-yHhYcDJMPQ9-1">
            <mxGeometry x="120" y="25" width="93" height="30" as="geometry" />
          </mxCell>
        </UserObject>
        <UserObject label="" link="data:page/id,VksMP-APIKd3p9qy1frE" id="nf4EPVGC-yHhYcDJMPQ9-8">
          <mxCell style="shape=sumEllipse;perimeter=ellipsePerimeter;whiteSpace=wrap;html=1;backgroundOutline=1;" vertex="1" parent="nf4EPVGC-yHhYcDJMPQ9-1">
            <mxGeometry x="93" y="20" width="40" height="40" as="geometry" />
          </mxCell>
        </UserObject>
        <UserObject label="Libros/texto" link="data:page/id,VksMP-APIKd3p9qy1frE" id="nf4EPVGC-yHhYcDJMPQ9-9">
          <mxCell style="text;html=1;align=center;verticalAlign=middle;whiteSpace=wrap;rounded=0;" vertex="1" parent="nf4EPVGC-yHhYcDJMPQ9-1">
            <mxGeometry x="226" y="25" width="93" height="30" as="geometry" />
          </mxCell>
        </UserObject>
        <UserObject label="" link="data:page/id,VksMP-APIKd3p9qy1frE" id="nf4EPVGC-yHhYcDJMPQ9-10">
          <mxCell style="shape=sumEllipse;perimeter=ellipsePerimeter;whiteSpace=wrap;html=1;backgroundOutline=1;" vertex="1" parent="nf4EPVGC-yHhYcDJMPQ9-1">
            <mxGeometry x="193" y="20" width="40" height="40" as="geometry" />
          </mxCell>
        </UserObject>
        <UserObject label="Videos" link="data:page/id,VksMP-APIKd3p9qy1frE" id="nf4EPVGC-yHhYcDJMPQ9-11">
          <mxCell style="text;html=1;align=center;verticalAlign=middle;whiteSpace=wrap;rounded=0;" vertex="1" parent="nf4EPVGC-yHhYcDJMPQ9-1">
            <mxGeometry x="340" y="25" width="64" height="30" as="geometry" />
          </mxCell>
        </UserObject>
        <UserObject label="" link="data:page/id,VksMP-APIKd3p9qy1frE" id="nf4EPVGC-yHhYcDJMPQ9-12">
          <mxCell style="shape=sumEllipse;perimeter=ellipsePerimeter;whiteSpace=wrap;html=1;backgroundOutline=1;" vertex="1" parent="nf4EPVGC-yHhYcDJMPQ9-1">
            <mxGeometry x="306" y="20" width="40" height="40" as="geometry" />
          </mxCell>
        </UserObject>
        <UserObject label="Otros" link="data:page/id,VksMP-APIKd3p9qy1frE" id="nf4EPVGC-yHhYcDJMPQ9-13">
          <mxCell style="text;html=1;align=center;verticalAlign=middle;whiteSpace=wrap;rounded=0;" vertex="1" parent="nf4EPVGC-yHhYcDJMPQ9-1">
            <mxGeometry x="440" y="25" width="50" height="30" as="geometry" />
          </mxCell>
        </UserObject>
        <UserObject label="" link="data:page/id,VksMP-APIKd3p9qy1frE" id="nf4EPVGC-yHhYcDJMPQ9-14">
          <mxCell style="shape=sumEllipse;perimeter=ellipsePerimeter;whiteSpace=wrap;html=1;backgroundOutline=1;" vertex="1" parent="nf4EPVGC-yHhYcDJMPQ9-1">
            <mxGeometry x="400" y="20" width="40" height="40" as="geometry" />
          </mxCell>
        </UserObject>
        <UserObject label="" link="data:page/id,NIJT_eNwgPCjwMeY6-0-" id="nf4EPVGC-yHhYcDJMPQ9-15">
          <mxCell style="group" vertex="1" connectable="0" parent="nf4EPVGC-yHhYcDJMPQ9-1">
            <mxGeometry x="673" y="20" width="133" height="40" as="geometry" />
          </mxCell>
        </UserObject>
        <UserObject label="Cerrar Sesión" id="nf4EPVGC-yHhYcDJMPQ9-16">
          <mxCell style="text;html=1;align=center;verticalAlign=middle;whiteSpace=wrap;rounded=0;" vertex="1" parent="nf4EPVGC-yHhYcDJMPQ9-15">
            <mxGeometry x="40" y="5" width="93" height="30" as="geometry" />
          </mxCell>
        </UserObject>
        <mxCell id="nf4EPVGC-yHhYcDJMPQ9-17" value="" style="shape=sumEllipse;perimeter=ellipsePerimeter;whiteSpace=wrap;html=1;backgroundOutline=1;" vertex="1" parent="nf4EPVGC-yHhYcDJMPQ9-15">
          <mxGeometry width="40" height="40" as="geometry" />
        </mxCell>
        <mxCell id="nf4EPVGC-yHhYcDJMPQ9-18" value="" style="rounded=0;whiteSpace=wrap;html=1;" vertex="1" parent="nf4EPVGC-yHhYcDJMPQ9-1">
          <mxGeometry y="80" width="820" height="220" as="geometry" />
        </mxCell>
        <mxCell id="nf4EPVGC-yHhYcDJMPQ9-19" value="" style="shape=sumEllipse;perimeter=ellipsePerimeter;whiteSpace=wrap;html=1;backgroundOutline=1;" vertex="1" parent="nf4EPVGC-yHhYcDJMPQ9-1">
          <mxGeometry x="39.5" y="120" width="147" height="140" as="geometry" />
        </mxCell>
        <mxCell id="nf4EPVGC-yHhYcDJMPQ9-20" value="Texto de página contenido" style="text;html=1;align=center;verticalAlign=middle;whiteSpace=wrap;rounded=0;" vertex="1" parent="nf4EPVGC-yHhYcDJMPQ9-1">
          <mxGeometry x="330" y="175" width="160" height="30" as="geometry" />
        </mxCell>
        <mxCell id="nf4EPVGC-yHhYcDJMPQ9-21" value="" style="rounded=0;whiteSpace=wrap;html=1;" vertex="1" parent="nf4EPVGC-yHhYcDJMPQ9-1">
          <mxGeometry y="300" width="820" height="860" as="geometry" />
        </mxCell>
        <mxCell id="nf4EPVGC-yHhYcDJMPQ9-22" value="&lt;b&gt;Buscador Texto&lt;/b&gt;" style="rounded=1;whiteSpace=wrap;html=1;" vertex="1" parent="nf4EPVGC-yHhYcDJMPQ9-1">
          <mxGeometry x="150" y="320" width="460" height="30" as="geometry" />
        </mxCell>
        <mxCell id="nf4EPVGC-yHhYcDJMPQ9-23" value="Buscar" style="rounded=1;whiteSpace=wrap;html=1;" vertex="1" parent="nf4EPVGC-yHhYcDJMPQ9-1">
          <mxGeometry x="673" y="320" width="77" height="30" as="geometry" />
        </mxCell>
        <mxCell id="nf4EPVGC-yHhYcDJMPQ9-24" value="" style="rounded=0;whiteSpace=wrap;html=1;" vertex="1" parent="nf4EPVGC-yHhYcDJMPQ9-1">
          <mxGeometry x="22.5" y="440" width="17" height="20" as="geometry" />
        </mxCell>
        <mxCell id="nf4EPVGC-yHhYcDJMPQ9-25" value="Tipo Contenido" style="text;html=1;align=center;verticalAlign=middle;whiteSpace=wrap;rounded=0;" vertex="1" parent="nf4EPVGC-yHhYcDJMPQ9-1">
          <mxGeometry x="22.5" y="390" width="87.5" height="30" as="geometry" />
        </mxCell>
        <mxCell id="nf4EPVGC-yHhYcDJMPQ9-26" value="" style="endArrow=none;html=1;rounded=0;" edge="1" parent="nf4EPVGC-yHhYcDJMPQ9-1">
          <mxGeometry width="50" height="50" relative="1" as="geometry">
            <mxPoint x="26.25" y="420" as="sourcePoint" />
            <mxPoint x="106.25" y="420" as="targetPoint" />
          </mxGeometry>
        </mxCell>
        <mxCell id="nf4EPVGC-yHhYcDJMPQ9-27" value="Tipo Contenido" style="text;html=1;align=center;verticalAlign=middle;whiteSpace=wrap;rounded=0;" vertex="1" parent="nf4EPVGC-yHhYcDJMPQ9-1">
          <mxGeometry x="39.5" y="435" width="90.5" height="30" as="geometry" />
        </mxCell>
        <mxCell id="nf4EPVGC-yHhYcDJMPQ9-28" value="" style="rounded=0;whiteSpace=wrap;html=1;" vertex="1" parent="nf4EPVGC-yHhYcDJMPQ9-1">
          <mxGeometry x="22.5" y="470" width="17" height="20" as="geometry" />
        </mxCell>
        <mxCell id="nf4EPVGC-yHhYcDJMPQ9-29" value="Tipo Contenido" style="text;html=1;align=center;verticalAlign=middle;whiteSpace=wrap;rounded=0;" vertex="1" parent="nf4EPVGC-yHhYcDJMPQ9-1">
          <mxGeometry x="39.5" y="465" width="90.5" height="30" as="geometry" />
        </mxCell>
        <mxCell id="nf4EPVGC-yHhYcDJMPQ9-30" value="" style="rounded=0;whiteSpace=wrap;html=1;" vertex="1" parent="nf4EPVGC-yHhYcDJMPQ9-1">
          <mxGeometry x="22.5" y="495" width="17" height="20" as="geometry" />
        </mxCell>
        <mxCell id="nf4EPVGC-yHhYcDJMPQ9-31" value="Tipo Contenido" style="text;html=1;align=center;verticalAlign=middle;whiteSpace=wrap;rounded=0;" vertex="1" parent="nf4EPVGC-yHhYcDJMPQ9-1">
          <mxGeometry x="39.5" y="490" width="90.5" height="30" as="geometry" />
        </mxCell>
        <mxCell id="nf4EPVGC-yHhYcDJMPQ9-32" value="" style="rounded=0;whiteSpace=wrap;html=1;" vertex="1" parent="nf4EPVGC-yHhYcDJMPQ9-1">
          <mxGeometry x="22.5" y="520" width="17" height="20" as="geometry" />
        </mxCell>
        <mxCell id="nf4EPVGC-yHhYcDJMPQ9-33" value="Tipo Contenido" style="text;html=1;align=center;verticalAlign=middle;whiteSpace=wrap;rounded=0;" vertex="1" parent="nf4EPVGC-yHhYcDJMPQ9-1">
          <mxGeometry x="39.5" y="515" width="90.5" height="30" as="geometry" />
        </mxCell>
        <mxCell id="nf4EPVGC-yHhYcDJMPQ9-34" value="" style="rounded=0;whiteSpace=wrap;html=1;" vertex="1" parent="1">
          <mxGeometry x="150" y="380" width="670" height="780" as="geometry" />
        </mxCell>
        <mxCell id="nf4EPVGC-yHhYcDJMPQ9-35" value="" style="group" vertex="1" connectable="0" parent="1">
          <mxGeometry x="180" y="410" width="170" height="200" as="geometry" />
        </mxCell>
        <mxCell id="nf4EPVGC-yHhYcDJMPQ9-36" value="" style="rounded=1;whiteSpace=wrap;html=1;movable=1;resizable=1;rotatable=1;deletable=1;editable=1;locked=0;connectable=1;" vertex="1" parent="nf4EPVGC-yHhYcDJMPQ9-35">
          <mxGeometry width="170" height="200" as="geometry" />
        </mxCell>
        <mxCell id="nf4EPVGC-yHhYcDJMPQ9-37" value="" style="rounded=0;whiteSpace=wrap;html=1;movable=1;resizable=1;rotatable=1;deletable=1;editable=1;locked=0;connectable=1;" vertex="1" parent="nf4EPVGC-yHhYcDJMPQ9-35">
          <mxGeometry x="10" y="10" width="150" height="110" as="geometry" />
        </mxCell>
        <mxCell id="nf4EPVGC-yHhYcDJMPQ9-38" value="" style="endArrow=none;html=1;rounded=0;exitX=0;exitY=0;exitDx=0;exitDy=0;entryX=1;entryY=1;entryDx=0;entryDy=0;movable=1;resizable=1;rotatable=1;deletable=1;editable=1;locked=0;connectable=1;" edge="1" parent="nf4EPVGC-yHhYcDJMPQ9-35" source="nf4EPVGC-yHhYcDJMPQ9-37" target="nf4EPVGC-yHhYcDJMPQ9-37">
          <mxGeometry width="50" height="50" relative="1" as="geometry">
            <mxPoint x="210" y="160" as="sourcePoint" />
            <mxPoint x="260" y="110" as="targetPoint" />
          </mxGeometry>
        </mxCell>
        <mxCell id="nf4EPVGC-yHhYcDJMPQ9-39" value="" style="endArrow=none;html=1;rounded=0;exitX=0;exitY=1;exitDx=0;exitDy=0;entryX=1;entryY=0;entryDx=0;entryDy=0;movable=1;resizable=1;rotatable=1;deletable=1;editable=1;locked=0;connectable=1;" edge="1" parent="nf4EPVGC-yHhYcDJMPQ9-35" source="nf4EPVGC-yHhYcDJMPQ9-37" target="nf4EPVGC-yHhYcDJMPQ9-37">
          <mxGeometry width="50" height="50" relative="1" as="geometry">
            <mxPoint x="210" y="160" as="sourcePoint" />
            <mxPoint x="260" y="110" as="targetPoint" />
          </mxGeometry>
        </mxCell>
        <mxCell id="nf4EPVGC-yHhYcDJMPQ9-40" value="Nombre" style="text;html=1;align=center;verticalAlign=middle;whiteSpace=wrap;rounded=0;movable=1;resizable=1;rotatable=1;deletable=1;editable=1;locked=0;connectable=1;" vertex="1" parent="nf4EPVGC-yHhYcDJMPQ9-35">
          <mxGeometry x="55" y="140" width="60" height="30" as="geometry" />
        </mxCell>
        <mxCell id="nf4EPVGC-yHhYcDJMPQ9-41" value="" style="group" vertex="1" connectable="0" parent="1">
          <mxGeometry x="400" y="410" width="170" height="200" as="geometry" />
        </mxCell>
        <mxCell id="nf4EPVGC-yHhYcDJMPQ9-42" value="" style="rounded=1;whiteSpace=wrap;html=1;movable=1;resizable=1;rotatable=1;deletable=1;editable=1;locked=0;connectable=1;" vertex="1" parent="nf4EPVGC-yHhYcDJMPQ9-41">
          <mxGeometry width="170" height="200" as="geometry" />
        </mxCell>
        <mxCell id="nf4EPVGC-yHhYcDJMPQ9-43" value="" style="rounded=0;whiteSpace=wrap;html=1;movable=1;resizable=1;rotatable=1;deletable=1;editable=1;locked=0;connectable=1;" vertex="1" parent="nf4EPVGC-yHhYcDJMPQ9-41">
          <mxGeometry x="10" y="10" width="150" height="110" as="geometry" />
        </mxCell>
        <mxCell id="nf4EPVGC-yHhYcDJMPQ9-44" value="" style="endArrow=none;html=1;rounded=0;exitX=0;exitY=0;exitDx=0;exitDy=0;entryX=1;entryY=1;entryDx=0;entryDy=0;movable=1;resizable=1;rotatable=1;deletable=1;editable=1;locked=0;connectable=1;" edge="1" parent="nf4EPVGC-yHhYcDJMPQ9-41" source="nf4EPVGC-yHhYcDJMPQ9-43" target="nf4EPVGC-yHhYcDJMPQ9-43">
          <mxGeometry width="50" height="50" relative="1" as="geometry">
            <mxPoint x="210" y="160" as="sourcePoint" />
            <mxPoint x="260" y="110" as="targetPoint" />
          </mxGeometry>
        </mxCell>
        <mxCell id="nf4EPVGC-yHhYcDJMPQ9-45" value="" style="endArrow=none;html=1;rounded=0;exitX=0;exitY=1;exitDx=0;exitDy=0;entryX=1;entryY=0;entryDx=0;entryDy=0;movable=1;resizable=1;rotatable=1;deletable=1;editable=1;locked=0;connectable=1;" edge="1" parent="nf4EPVGC-yHhYcDJMPQ9-41" source="nf4EPVGC-yHhYcDJMPQ9-43" target="nf4EPVGC-yHhYcDJMPQ9-43">
          <mxGeometry width="50" height="50" relative="1" as="geometry">
            <mxPoint x="210" y="160" as="sourcePoint" />
            <mxPoint x="260" y="110" as="targetPoint" />
          </mxGeometry>
        </mxCell>
        <mxCell id="nf4EPVGC-yHhYcDJMPQ9-46" value="Nombre" style="text;html=1;align=center;verticalAlign=middle;whiteSpace=wrap;rounded=0;movable=1;resizable=1;rotatable=1;deletable=1;editable=1;locked=0;connectable=1;" vertex="1" parent="nf4EPVGC-yHhYcDJMPQ9-41">
          <mxGeometry x="55" y="140" width="60" height="30" as="geometry" />
        </mxCell>
        <mxCell id="nf4EPVGC-yHhYcDJMPQ9-47" value="" style="group" vertex="1" connectable="0" parent="1">
          <mxGeometry x="620" y="410" width="200" height="750" as="geometry" />
        </mxCell>
        <mxCell id="nf4EPVGC-yHhYcDJMPQ9-48" value="" style="rounded=1;whiteSpace=wrap;html=1;movable=1;resizable=1;rotatable=1;deletable=1;editable=1;locked=0;connectable=1;" vertex="1" parent="nf4EPVGC-yHhYcDJMPQ9-47">
          <mxGeometry width="170" height="200" as="geometry" />
        </mxCell>
        <mxCell id="nf4EPVGC-yHhYcDJMPQ9-49" value="" style="rounded=0;whiteSpace=wrap;html=1;movable=1;resizable=1;rotatable=1;deletable=1;editable=1;locked=0;connectable=1;" vertex="1" parent="nf4EPVGC-yHhYcDJMPQ9-47">
          <mxGeometry x="10" y="10" width="150" height="110" as="geometry" />
        </mxCell>
        <mxCell id="nf4EPVGC-yHhYcDJMPQ9-50" value="" style="endArrow=none;html=1;rounded=0;exitX=0;exitY=0;exitDx=0;exitDy=0;entryX=1;entryY=1;entryDx=0;entryDy=0;movable=1;resizable=1;rotatable=1;deletable=1;editable=1;locked=0;connectable=1;" edge="1" parent="nf4EPVGC-yHhYcDJMPQ9-47" source="nf4EPVGC-yHhYcDJMPQ9-49" target="nf4EPVGC-yHhYcDJMPQ9-49">
          <mxGeometry width="50" height="50" relative="1" as="geometry">
            <mxPoint x="210" y="160" as="sourcePoint" />
            <mxPoint x="260" y="110" as="targetPoint" />
          </mxGeometry>
        </mxCell>
        <mxCell id="nf4EPVGC-yHhYcDJMPQ9-51" value="" style="endArrow=none;html=1;rounded=0;exitX=0;exitY=1;exitDx=0;exitDy=0;entryX=1;entryY=0;entryDx=0;entryDy=0;movable=1;resizable=1;rotatable=1;deletable=1;editable=1;locked=0;connectable=1;" edge="1" parent="nf4EPVGC-yHhYcDJMPQ9-47" source="nf4EPVGC-yHhYcDJMPQ9-49" target="nf4EPVGC-yHhYcDJMPQ9-49">
          <mxGeometry width="50" height="50" relative="1" as="geometry">
            <mxPoint x="210" y="160" as="sourcePoint" />
            <mxPoint x="260" y="110" as="targetPoint" />
          </mxGeometry>
        </mxCell>
        <mxCell id="nf4EPVGC-yHhYcDJMPQ9-52" value="Nombre" style="text;html=1;align=center;verticalAlign=middle;whiteSpace=wrap;rounded=0;movable=1;resizable=1;rotatable=1;deletable=1;editable=1;locked=0;connectable=1;" vertex="1" parent="nf4EPVGC-yHhYcDJMPQ9-47">
          <mxGeometry x="55" y="140" width="60" height="30" as="geometry" />
        </mxCell>
        <mxCell id="nf4EPVGC-yHhYcDJMPQ9-53" value="" style="rounded=0;whiteSpace=wrap;html=1;" vertex="1" parent="nf4EPVGC-yHhYcDJMPQ9-47">
          <mxGeometry x="180" y="-30" width="20" height="780" as="geometry" />
        </mxCell>
        <mxCell id="nf4EPVGC-yHhYcDJMPQ9-54" value="" style="shape=flexArrow;endArrow=classic;html=1;rounded=0;width=2;endSize=4.33;endWidth=12;" edge="1" parent="nf4EPVGC-yHhYcDJMPQ9-47">
          <mxGeometry width="50" height="50" relative="1" as="geometry">
            <mxPoint x="189.5" y="700" as="sourcePoint" />
            <mxPoint x="189.5" y="750" as="targetPoint" />
          </mxGeometry>
        </mxCell>
        <mxCell id="nf4EPVGC-yHhYcDJMPQ9-55" value="" style="shape=flexArrow;endArrow=classic;html=1;rounded=0;width=2;endSize=4.33;endWidth=12;" edge="1" parent="nf4EPVGC-yHhYcDJMPQ9-47">
          <mxGeometry width="50" height="50" relative="1" as="geometry">
            <mxPoint x="189.5" y="20" as="sourcePoint" />
            <mxPoint x="189.5" y="-30" as="targetPoint" />
          </mxGeometry>
        </mxCell>
        <mxCell id="nf4EPVGC-yHhYcDJMPQ9-56" value="" style="endArrow=none;html=1;rounded=0;" edge="1" parent="nf4EPVGC-yHhYcDJMPQ9-47">
          <mxGeometry width="50" height="50" relative="1" as="geometry">
            <mxPoint x="180" y="690" as="sourcePoint" />
            <mxPoint x="200" y="690" as="targetPoint" />
          </mxGeometry>
        </mxCell>
        <mxCell id="nf4EPVGC-yHhYcDJMPQ9-57" value="" style="endArrow=none;html=1;rounded=0;" edge="1" parent="nf4EPVGC-yHhYcDJMPQ9-47">
          <mxGeometry width="50" height="50" relative="1" as="geometry">
            <mxPoint x="180" y="30" as="sourcePoint" />
            <mxPoint x="200" y="30" as="targetPoint" />
          </mxGeometry>
        </mxCell>
        <mxCell id="nf4EPVGC-yHhYcDJMPQ9-58" value="" style="group" vertex="1" connectable="0" parent="1">
          <mxGeometry x="180" y="630" width="170" height="200" as="geometry" />
        </mxCell>
        <mxCell id="nf4EPVGC-yHhYcDJMPQ9-59" value="" style="rounded=1;whiteSpace=wrap;html=1;movable=1;resizable=1;rotatable=1;deletable=1;editable=1;locked=0;connectable=1;" vertex="1" parent="nf4EPVGC-yHhYcDJMPQ9-58">
          <mxGeometry width="170" height="200" as="geometry" />
        </mxCell>
        <mxCell id="nf4EPVGC-yHhYcDJMPQ9-60" value="" style="rounded=0;whiteSpace=wrap;html=1;movable=1;resizable=1;rotatable=1;deletable=1;editable=1;locked=0;connectable=1;" vertex="1" parent="nf4EPVGC-yHhYcDJMPQ9-58">
          <mxGeometry x="10" y="10" width="150" height="110" as="geometry" />
        </mxCell>
        <mxCell id="nf4EPVGC-yHhYcDJMPQ9-61" value="" style="endArrow=none;html=1;rounded=0;exitX=0;exitY=0;exitDx=0;exitDy=0;entryX=1;entryY=1;entryDx=0;entryDy=0;movable=1;resizable=1;rotatable=1;deletable=1;editable=1;locked=0;connectable=1;" edge="1" parent="nf4EPVGC-yHhYcDJMPQ9-58" source="nf4EPVGC-yHhYcDJMPQ9-60" target="nf4EPVGC-yHhYcDJMPQ9-60">
          <mxGeometry width="50" height="50" relative="1" as="geometry">
            <mxPoint x="210" y="160" as="sourcePoint" />
            <mxPoint x="260" y="110" as="targetPoint" />
          </mxGeometry>
        </mxCell>
        <mxCell id="nf4EPVGC-yHhYcDJMPQ9-62" value="" style="endArrow=none;html=1;rounded=0;exitX=0;exitY=1;exitDx=0;exitDy=0;entryX=1;entryY=0;entryDx=0;entryDy=0;movable=1;resizable=1;rotatable=1;deletable=1;editable=1;locked=0;connectable=1;" edge="1" parent="nf4EPVGC-yHhYcDJMPQ9-58" source="nf4EPVGC-yHhYcDJMPQ9-60" target="nf4EPVGC-yHhYcDJMPQ9-60">
          <mxGeometry width="50" height="50" relative="1" as="geometry">
            <mxPoint x="210" y="160" as="sourcePoint" />
            <mxPoint x="260" y="110" as="targetPoint" />
          </mxGeometry>
        </mxCell>
        <mxCell id="nf4EPVGC-yHhYcDJMPQ9-63" value="Nombre" style="text;html=1;align=center;verticalAlign=middle;whiteSpace=wrap;rounded=0;movable=1;resizable=1;rotatable=1;deletable=1;editable=1;locked=0;connectable=1;" vertex="1" parent="nf4EPVGC-yHhYcDJMPQ9-58">
          <mxGeometry x="55" y="140" width="60" height="30" as="geometry" />
        </mxCell>
        <mxCell id="nf4EPVGC-yHhYcDJMPQ9-64" value="" style="group" vertex="1" connectable="0" parent="1">
          <mxGeometry x="180" y="870" width="170" height="200" as="geometry" />
        </mxCell>
        <mxCell id="nf4EPVGC-yHhYcDJMPQ9-65" value="" style="rounded=1;whiteSpace=wrap;html=1;movable=1;resizable=1;rotatable=1;deletable=1;editable=1;locked=0;connectable=1;" vertex="1" parent="nf4EPVGC-yHhYcDJMPQ9-64">
          <mxGeometry width="170" height="200" as="geometry" />
        </mxCell>
        <mxCell id="nf4EPVGC-yHhYcDJMPQ9-66" value="" style="rounded=0;whiteSpace=wrap;html=1;movable=1;resizable=1;rotatable=1;deletable=1;editable=1;locked=0;connectable=1;" vertex="1" parent="nf4EPVGC-yHhYcDJMPQ9-64">
          <mxGeometry x="10" y="10" width="150" height="110" as="geometry" />
        </mxCell>
        <mxCell id="nf4EPVGC-yHhYcDJMPQ9-67" value="" style="endArrow=none;html=1;rounded=0;exitX=0;exitY=0;exitDx=0;exitDy=0;entryX=1;entryY=1;entryDx=0;entryDy=0;movable=1;resizable=1;rotatable=1;deletable=1;editable=1;locked=0;connectable=1;" edge="1" parent="nf4EPVGC-yHhYcDJMPQ9-64" source="nf4EPVGC-yHhYcDJMPQ9-66" target="nf4EPVGC-yHhYcDJMPQ9-66">
          <mxGeometry width="50" height="50" relative="1" as="geometry">
            <mxPoint x="210" y="160" as="sourcePoint" />
            <mxPoint x="260" y="110" as="targetPoint" />
          </mxGeometry>
        </mxCell>
        <mxCell id="nf4EPVGC-yHhYcDJMPQ9-68" value="" style="endArrow=none;html=1;rounded=0;exitX=0;exitY=1;exitDx=0;exitDy=0;entryX=1;entryY=0;entryDx=0;entryDy=0;movable=1;resizable=1;rotatable=1;deletable=1;editable=1;locked=0;connectable=1;" edge="1" parent="nf4EPVGC-yHhYcDJMPQ9-64" source="nf4EPVGC-yHhYcDJMPQ9-66" target="nf4EPVGC-yHhYcDJMPQ9-66">
          <mxGeometry width="50" height="50" relative="1" as="geometry">
            <mxPoint x="210" y="160" as="sourcePoint" />
            <mxPoint x="260" y="110" as="targetPoint" />
          </mxGeometry>
        </mxCell>
        <mxCell id="nf4EPVGC-yHhYcDJMPQ9-69" value="Nombre" style="text;html=1;align=center;verticalAlign=middle;whiteSpace=wrap;rounded=0;movable=1;resizable=1;rotatable=1;deletable=1;editable=1;locked=0;connectable=1;" vertex="1" parent="nf4EPVGC-yHhYcDJMPQ9-64">
          <mxGeometry x="55" y="140" width="60" height="30" as="geometry" />
        </mxCell>
        <mxCell id="nf4EPVGC-yHhYcDJMPQ9-70" value="" style="group" vertex="1" connectable="0" parent="1">
          <mxGeometry x="400" y="630" width="170" height="200" as="geometry" />
        </mxCell>
        <mxCell id="nf4EPVGC-yHhYcDJMPQ9-71" value="" style="rounded=1;whiteSpace=wrap;html=1;movable=1;resizable=1;rotatable=1;deletable=1;editable=1;locked=0;connectable=1;" vertex="1" parent="nf4EPVGC-yHhYcDJMPQ9-70">
          <mxGeometry width="170" height="200" as="geometry" />
        </mxCell>
        <mxCell id="nf4EPVGC-yHhYcDJMPQ9-72" value="" style="rounded=0;whiteSpace=wrap;html=1;movable=1;resizable=1;rotatable=1;deletable=1;editable=1;locked=0;connectable=1;" vertex="1" parent="nf4EPVGC-yHhYcDJMPQ9-70">
          <mxGeometry x="10" y="10" width="150" height="110" as="geometry" />
        </mxCell>
        <mxCell id="nf4EPVGC-yHhYcDJMPQ9-73" value="" style="endArrow=none;html=1;rounded=0;exitX=0;exitY=0;exitDx=0;exitDy=0;entryX=1;entryY=1;entryDx=0;entryDy=0;movable=1;resizable=1;rotatable=1;deletable=1;editable=1;locked=0;connectable=1;" edge="1" parent="nf4EPVGC-yHhYcDJMPQ9-70" source="nf4EPVGC-yHhYcDJMPQ9-72" target="nf4EPVGC-yHhYcDJMPQ9-72">
          <mxGeometry width="50" height="50" relative="1" as="geometry">
            <mxPoint x="210" y="160" as="sourcePoint" />
            <mxPoint x="260" y="110" as="targetPoint" />
          </mxGeometry>
        </mxCell>
        <mxCell id="nf4EPVGC-yHhYcDJMPQ9-74" value="" style="endArrow=none;html=1;rounded=0;exitX=0;exitY=1;exitDx=0;exitDy=0;entryX=1;entryY=0;entryDx=0;entryDy=0;movable=1;resizable=1;rotatable=1;deletable=1;editable=1;locked=0;connectable=1;" edge="1" parent="nf4EPVGC-yHhYcDJMPQ9-70" source="nf4EPVGC-yHhYcDJMPQ9-72" target="nf4EPVGC-yHhYcDJMPQ9-72">
          <mxGeometry width="50" height="50" relative="1" as="geometry">
            <mxPoint x="210" y="160" as="sourcePoint" />
            <mxPoint x="260" y="110" as="targetPoint" />
          </mxGeometry>
        </mxCell>
        <mxCell id="nf4EPVGC-yHhYcDJMPQ9-75" value="Nombre" style="text;html=1;align=center;verticalAlign=middle;whiteSpace=wrap;rounded=0;movable=1;resizable=1;rotatable=1;deletable=1;editable=1;locked=0;connectable=1;" vertex="1" parent="nf4EPVGC-yHhYcDJMPQ9-70">
          <mxGeometry x="55" y="140" width="60" height="30" as="geometry" />
        </mxCell>
        <mxCell id="nf4EPVGC-yHhYcDJMPQ9-76" value="" style="group" vertex="1" connectable="0" parent="1">
          <mxGeometry x="400" y="870" width="170" height="200" as="geometry" />
        </mxCell>
        <mxCell id="nf4EPVGC-yHhYcDJMPQ9-77" value="" style="rounded=1;whiteSpace=wrap;html=1;movable=1;resizable=1;rotatable=1;deletable=1;editable=1;locked=0;connectable=1;" vertex="1" parent="nf4EPVGC-yHhYcDJMPQ9-76">
          <mxGeometry width="170" height="200" as="geometry" />
        </mxCell>
        <mxCell id="nf4EPVGC-yHhYcDJMPQ9-78" value="" style="rounded=0;whiteSpace=wrap;html=1;movable=1;resizable=1;rotatable=1;deletable=1;editable=1;locked=0;connectable=1;" vertex="1" parent="nf4EPVGC-yHhYcDJMPQ9-76">
          <mxGeometry x="10" y="10" width="150" height="110" as="geometry" />
        </mxCell>
        <mxCell id="nf4EPVGC-yHhYcDJMPQ9-79" value="" style="endArrow=none;html=1;rounded=0;exitX=0;exitY=0;exitDx=0;exitDy=0;entryX=1;entryY=1;entryDx=0;entryDy=0;movable=1;resizable=1;rotatable=1;deletable=1;editable=1;locked=0;connectable=1;" edge="1" parent="nf4EPVGC-yHhYcDJMPQ9-76" source="nf4EPVGC-yHhYcDJMPQ9-78" target="nf4EPVGC-yHhYcDJMPQ9-78">
          <mxGeometry width="50" height="50" relative="1" as="geometry">
            <mxPoint x="210" y="160" as="sourcePoint" />
            <mxPoint x="260" y="110" as="targetPoint" />
          </mxGeometry>
        </mxCell>
        <mxCell id="nf4EPVGC-yHhYcDJMPQ9-80" value="" style="endArrow=none;html=1;rounded=0;exitX=0;exitY=1;exitDx=0;exitDy=0;entryX=1;entryY=0;entryDx=0;entryDy=0;movable=1;resizable=1;rotatable=1;deletable=1;editable=1;locked=0;connectable=1;" edge="1" parent="nf4EPVGC-yHhYcDJMPQ9-76" source="nf4EPVGC-yHhYcDJMPQ9-78" target="nf4EPVGC-yHhYcDJMPQ9-78">
          <mxGeometry width="50" height="50" relative="1" as="geometry">
            <mxPoint x="210" y="160" as="sourcePoint" />
            <mxPoint x="260" y="110" as="targetPoint" />
          </mxGeometry>
        </mxCell>
        <mxCell id="nf4EPVGC-yHhYcDJMPQ9-81" value="Nombre" style="text;html=1;align=center;verticalAlign=middle;whiteSpace=wrap;rounded=0;movable=1;resizable=1;rotatable=1;deletable=1;editable=1;locked=0;connectable=1;" vertex="1" parent="nf4EPVGC-yHhYcDJMPQ9-76">
          <mxGeometry x="55" y="140" width="60" height="30" as="geometry" />
        </mxCell>
        <mxCell id="nf4EPVGC-yHhYcDJMPQ9-82" value="" style="group" vertex="1" connectable="0" parent="1">
          <mxGeometry x="620" y="630" width="170" height="200" as="geometry" />
        </mxCell>
        <mxCell id="nf4EPVGC-yHhYcDJMPQ9-83" value="" style="rounded=1;whiteSpace=wrap;html=1;movable=1;resizable=1;rotatable=1;deletable=1;editable=1;locked=0;connectable=1;" vertex="1" parent="nf4EPVGC-yHhYcDJMPQ9-82">
          <mxGeometry width="170" height="200" as="geometry" />
        </mxCell>
        <mxCell id="nf4EPVGC-yHhYcDJMPQ9-84" value="" style="rounded=0;whiteSpace=wrap;html=1;movable=1;resizable=1;rotatable=1;deletable=1;editable=1;locked=0;connectable=1;" vertex="1" parent="nf4EPVGC-yHhYcDJMPQ9-82">
          <mxGeometry x="10" y="10" width="150" height="110" as="geometry" />
        </mxCell>
        <mxCell id="nf4EPVGC-yHhYcDJMPQ9-85" value="" style="endArrow=none;html=1;rounded=0;exitX=0;exitY=0;exitDx=0;exitDy=0;entryX=1;entryY=1;entryDx=0;entryDy=0;movable=1;resizable=1;rotatable=1;deletable=1;editable=1;locked=0;connectable=1;" edge="1" parent="nf4EPVGC-yHhYcDJMPQ9-82" source="nf4EPVGC-yHhYcDJMPQ9-84" target="nf4EPVGC-yHhYcDJMPQ9-84">
          <mxGeometry width="50" height="50" relative="1" as="geometry">
            <mxPoint x="210" y="160" as="sourcePoint" />
            <mxPoint x="260" y="110" as="targetPoint" />
          </mxGeometry>
        </mxCell>
        <mxCell id="nf4EPVGC-yHhYcDJMPQ9-86" value="" style="endArrow=none;html=1;rounded=0;exitX=0;exitY=1;exitDx=0;exitDy=0;entryX=1;entryY=0;entryDx=0;entryDy=0;movable=1;resizable=1;rotatable=1;deletable=1;editable=1;locked=0;connectable=1;" edge="1" parent="nf4EPVGC-yHhYcDJMPQ9-82" source="nf4EPVGC-yHhYcDJMPQ9-84" target="nf4EPVGC-yHhYcDJMPQ9-84">
          <mxGeometry width="50" height="50" relative="1" as="geometry">
            <mxPoint x="210" y="160" as="sourcePoint" />
            <mxPoint x="260" y="110" as="targetPoint" />
          </mxGeometry>
        </mxCell>
        <mxCell id="nf4EPVGC-yHhYcDJMPQ9-87" value="Nombre" style="text;html=1;align=center;verticalAlign=middle;whiteSpace=wrap;rounded=0;movable=1;resizable=1;rotatable=1;deletable=1;editable=1;locked=0;connectable=1;" vertex="1" parent="nf4EPVGC-yHhYcDJMPQ9-82">
          <mxGeometry x="55" y="140" width="60" height="30" as="geometry" />
        </mxCell>
        <mxCell id="nf4EPVGC-yHhYcDJMPQ9-88" value="" style="group" vertex="1" connectable="0" parent="1">
          <mxGeometry x="620" y="870" width="170" height="200" as="geometry" />
        </mxCell>
        <mxCell id="nf4EPVGC-yHhYcDJMPQ9-89" value="" style="rounded=1;whiteSpace=wrap;html=1;movable=1;resizable=1;rotatable=1;deletable=1;editable=1;locked=0;connectable=1;" vertex="1" parent="nf4EPVGC-yHhYcDJMPQ9-88">
          <mxGeometry width="170" height="200" as="geometry" />
        </mxCell>
        <mxCell id="nf4EPVGC-yHhYcDJMPQ9-90" value="" style="rounded=0;whiteSpace=wrap;html=1;movable=1;resizable=1;rotatable=1;deletable=1;editable=1;locked=0;connectable=1;" vertex="1" parent="nf4EPVGC-yHhYcDJMPQ9-88">
          <mxGeometry x="10" y="10" width="150" height="110" as="geometry" />
        </mxCell>
        <mxCell id="nf4EPVGC-yHhYcDJMPQ9-91" value="" style="endArrow=none;html=1;rounded=0;exitX=0;exitY=0;exitDx=0;exitDy=0;entryX=1;entryY=1;entryDx=0;entryDy=0;movable=1;resizable=1;rotatable=1;deletable=1;editable=1;locked=0;connectable=1;" edge="1" parent="nf4EPVGC-yHhYcDJMPQ9-88" source="nf4EPVGC-yHhYcDJMPQ9-90" target="nf4EPVGC-yHhYcDJMPQ9-90">
          <mxGeometry width="50" height="50" relative="1" as="geometry">
            <mxPoint x="210" y="160" as="sourcePoint" />
            <mxPoint x="260" y="110" as="targetPoint" />
          </mxGeometry>
        </mxCell>
        <mxCell id="nf4EPVGC-yHhYcDJMPQ9-92" value="" style="endArrow=none;html=1;rounded=0;exitX=0;exitY=1;exitDx=0;exitDy=0;entryX=1;entryY=0;entryDx=0;entryDy=0;movable=1;resizable=1;rotatable=1;deletable=1;editable=1;locked=0;connectable=1;" edge="1" parent="nf4EPVGC-yHhYcDJMPQ9-88" source="nf4EPVGC-yHhYcDJMPQ9-90" target="nf4EPVGC-yHhYcDJMPQ9-90">
          <mxGeometry width="50" height="50" relative="1" as="geometry">
            <mxPoint x="210" y="160" as="sourcePoint" />
            <mxPoint x="260" y="110" as="targetPoint" />
          </mxGeometry>
        </mxCell>
        <mxCell id="nf4EPVGC-yHhYcDJMPQ9-93" value="Nombre" style="text;html=1;align=center;verticalAlign=middle;whiteSpace=wrap;rounded=0;movable=1;resizable=1;rotatable=1;deletable=1;editable=1;locked=0;connectable=1;" vertex="1" parent="nf4EPVGC-yHhYcDJMPQ9-88">
          <mxGeometry x="55" y="140" width="60" height="30" as="geometry" />
        </mxCell>
        <UserObject label="" link="data:page/id,IAW55RW-1b6eh70SpbsO" id="tKkyJ7AWGIbW5iNx_M2o-1">
          <mxCell style="shape=flexArrow;endArrow=classic;html=1;rounded=0;" edge="1" parent="1">
            <mxGeometry width="50" height="50" relative="1" as="geometry">
              <mxPoint x="510" y="60" as="sourcePoint" />
              <mxPoint x="510" y="20" as="targetPoint" />
            </mxGeometry>
          </mxCell>
        </UserObject>
      </root>
    </mxGraphModel>
  </diagram>
  <diagram id="Elu9vbW6ZCP34hRs17hx" name="Perfil">
    <mxGraphModel dx="1434" dy="780" grid="1" gridSize="10" guides="1" tooltips="1" connect="1" arrows="1" fold="1" page="1" pageScale="1" pageWidth="827" pageHeight="1169" math="0" shadow="0">
      <root>
        <mxCell id="0" />
        <mxCell id="1" parent="0" />
        <mxCell id="-rqSo3ZuX7UEkUnwsxKw-1" value="" style="group" vertex="1" connectable="0" parent="1">
          <mxGeometry width="820" height="1160" as="geometry" />
        </mxCell>
        <mxCell id="-rqSo3ZuX7UEkUnwsxKw-2" value="" style="rounded=0;whiteSpace=wrap;html=1;" vertex="1" parent="-rqSo3ZuX7UEkUnwsxKw-1">
          <mxGeometry width="820" height="1160" as="geometry" />
        </mxCell>
        <mxCell id="-rqSo3ZuX7UEkUnwsxKw-3" value="" style="rounded=0;whiteSpace=wrap;html=1;" vertex="1" parent="-rqSo3ZuX7UEkUnwsxKw-1">
          <mxGeometry width="820" height="80" as="geometry" />
        </mxCell>
        <UserObject label="" link="data:page/id,C5XJyP3ficeGiDk7JTWP" id="-rqSo3ZuX7UEkUnwsxKw-4">
          <mxCell style="shape=sumEllipse;perimeter=ellipsePerimeter;whiteSpace=wrap;html=1;backgroundOutline=1;" vertex="1" parent="-rqSo3ZuX7UEkUnwsxKw-1">
            <mxGeometry width="80" height="80" as="geometry" />
          </mxCell>
        </UserObject>
        <UserObject label="Nombre_usuario" link="data:page/id,Elu9vbW6ZCP34hRs17hx" id="-rqSo3ZuX7UEkUnwsxKw-5">
          <mxCell style="text;html=1;align=center;verticalAlign=middle;whiteSpace=wrap;rounded=0;" vertex="1" parent="-rqSo3ZuX7UEkUnwsxKw-1">
            <mxGeometry x="573" y="25" width="93" height="30" as="geometry" />
          </mxCell>
        </UserObject>
        <UserObject label="" link="data:page/id,Elu9vbW6ZCP34hRs17hx" id="-rqSo3ZuX7UEkUnwsxKw-6">
          <mxCell style="shape=sumEllipse;perimeter=ellipsePerimeter;whiteSpace=wrap;html=1;backgroundOutline=1;" vertex="1" parent="-rqSo3ZuX7UEkUnwsxKw-1">
            <mxGeometry x="533" y="20" width="40" height="40" as="geometry" />
          </mxCell>
        </UserObject>
        <UserObject label="Audios&lt;span style=&quot;color: rgba(0, 0, 0, 0); font-family: monospace; font-size: 0px; text-align: start; text-wrap: nowrap;&quot;&gt;%3CmxGraphModel%3E%3Croot%3E%3CmxCell%20id%3D%220%22%2F%3E%3CmxCell%20id%3D%221%22%20parent%3D%220%22%2F%3E%3CmxCell%20id%3D%222%22%20value%3D%22Cerrar%20Sesi%C3%B3n%22%20style%3D%22text%3Bhtml%3D1%3Balign%3Dcenter%3BverticalAlign%3Dmiddle%3BwhiteSpace%3Dwrap%3Brounded%3D0%3B%22%20vertex%3D%221%22%20parent%3D%221%22%3E%3CmxGeometry%20x%3D%22720%22%20y%3D%2225%22%20width%3D%2293%22%20height%3D%2230%22%20as%3D%22geometry%22%2F%3E%3C%2FmxCell%3E%3CmxCell%20id%3D%223%22%20value%3D%22%22%20style%3D%22shape%3DsumEllipse%3Bperimeter%3DellipsePerimeter%3BwhiteSpace%3Dwrap%3Bhtml%3D1%3BbackgroundOutline%3D1%3B%22%20vertex%3D%221%22%20parent%3D%221%22%3E%3CmxGeometry%20x%3D%22680%22%20y%3D%2220%22%20width%3D%2240%22%20height%3D%2240%22%20as%3D%22geometry%22%2F%3E%3C%2FmxCell%3E%3C%2Froot%3E%3C%2FmxGraphModel%3E&lt;/span&gt;" link="data:page/id,VksMP-APIKd3p9qy1frE" id="-rqSo3ZuX7UEkUnwsxKw-7">
          <mxCell style="text;html=1;align=center;verticalAlign=middle;whiteSpace=wrap;rounded=0;" vertex="1" parent="-rqSo3ZuX7UEkUnwsxKw-1">
            <mxGeometry x="120" y="25" width="93" height="30" as="geometry" />
          </mxCell>
        </UserObject>
        <UserObject label="" link="data:page/id,VksMP-APIKd3p9qy1frE" id="-rqSo3ZuX7UEkUnwsxKw-8">
          <mxCell style="shape=sumEllipse;perimeter=ellipsePerimeter;whiteSpace=wrap;html=1;backgroundOutline=1;" vertex="1" parent="-rqSo3ZuX7UEkUnwsxKw-1">
            <mxGeometry x="93" y="20" width="40" height="40" as="geometry" />
          </mxCell>
        </UserObject>
        <UserObject label="Libros/texto" link="data:page/id,VksMP-APIKd3p9qy1frE" id="-rqSo3ZuX7UEkUnwsxKw-9">
          <mxCell style="text;html=1;align=center;verticalAlign=middle;whiteSpace=wrap;rounded=0;" vertex="1" parent="-rqSo3ZuX7UEkUnwsxKw-1">
            <mxGeometry x="226" y="25" width="93" height="30" as="geometry" />
          </mxCell>
        </UserObject>
        <UserObject label="" link="data:page/id,VksMP-APIKd3p9qy1frE" id="-rqSo3ZuX7UEkUnwsxKw-10">
          <mxCell style="shape=sumEllipse;perimeter=ellipsePerimeter;whiteSpace=wrap;html=1;backgroundOutline=1;" vertex="1" parent="-rqSo3ZuX7UEkUnwsxKw-1">
            <mxGeometry x="193" y="20" width="40" height="40" as="geometry" />
          </mxCell>
        </UserObject>
        <UserObject label="Videos" link="data:page/id,VksMP-APIKd3p9qy1frE" id="-rqSo3ZuX7UEkUnwsxKw-11">
          <mxCell style="text;html=1;align=center;verticalAlign=middle;whiteSpace=wrap;rounded=0;" vertex="1" parent="-rqSo3ZuX7UEkUnwsxKw-1">
            <mxGeometry x="340" y="25" width="64" height="30" as="geometry" />
          </mxCell>
        </UserObject>
        <UserObject label="" link="data:page/id,VksMP-APIKd3p9qy1frE" id="-rqSo3ZuX7UEkUnwsxKw-12">
          <mxCell style="shape=sumEllipse;perimeter=ellipsePerimeter;whiteSpace=wrap;html=1;backgroundOutline=1;" vertex="1" parent="-rqSo3ZuX7UEkUnwsxKw-1">
            <mxGeometry x="306" y="20" width="40" height="40" as="geometry" />
          </mxCell>
        </UserObject>
        <UserObject label="Otros" link="data:page/id,VksMP-APIKd3p9qy1frE" id="-rqSo3ZuX7UEkUnwsxKw-13">
          <mxCell style="text;html=1;align=center;verticalAlign=middle;whiteSpace=wrap;rounded=0;" vertex="1" parent="-rqSo3ZuX7UEkUnwsxKw-1">
            <mxGeometry x="440" y="25" width="50" height="30" as="geometry" />
          </mxCell>
        </UserObject>
        <UserObject label="" link="data:page/id,VksMP-APIKd3p9qy1frE" id="-rqSo3ZuX7UEkUnwsxKw-14">
          <mxCell style="shape=sumEllipse;perimeter=ellipsePerimeter;whiteSpace=wrap;html=1;backgroundOutline=1;" vertex="1" parent="-rqSo3ZuX7UEkUnwsxKw-1">
            <mxGeometry x="400" y="20" width="40" height="40" as="geometry" />
          </mxCell>
        </UserObject>
        <UserObject label="" link="data:page/id,NIJT_eNwgPCjwMeY6-0-" id="-rqSo3ZuX7UEkUnwsxKw-15">
          <mxCell style="group" vertex="1" connectable="0" parent="-rqSo3ZuX7UEkUnwsxKw-1">
            <mxGeometry x="673" y="20" width="133" height="40" as="geometry" />
          </mxCell>
        </UserObject>
        <UserObject label="Cerrar Sesión" id="-rqSo3ZuX7UEkUnwsxKw-16">
          <mxCell style="text;html=1;align=center;verticalAlign=middle;whiteSpace=wrap;rounded=0;" vertex="1" parent="-rqSo3ZuX7UEkUnwsxKw-15">
            <mxGeometry x="40" y="5" width="93" height="30" as="geometry" />
          </mxCell>
        </UserObject>
        <mxCell id="-rqSo3ZuX7UEkUnwsxKw-17" value="" style="shape=sumEllipse;perimeter=ellipsePerimeter;whiteSpace=wrap;html=1;backgroundOutline=1;" vertex="1" parent="-rqSo3ZuX7UEkUnwsxKw-15">
          <mxGeometry width="40" height="40" as="geometry" />
        </mxCell>
        <mxCell id="-rqSo3ZuX7UEkUnwsxKw-18" value="" style="rounded=0;whiteSpace=wrap;html=1;" vertex="1" parent="-rqSo3ZuX7UEkUnwsxKw-1">
          <mxGeometry y="80" width="820" height="220" as="geometry" />
        </mxCell>
        <mxCell id="-rqSo3ZuX7UEkUnwsxKw-20" value="Descripción Usuario" style="text;html=1;align=center;verticalAlign=middle;whiteSpace=wrap;rounded=0;" vertex="1" parent="-rqSo3ZuX7UEkUnwsxKw-1">
          <mxGeometry x="192.5" y="166.5" width="160" height="30" as="geometry" />
        </mxCell>
        <mxCell id="-rqSo3ZuX7UEkUnwsxKw-21" value="" style="rounded=0;whiteSpace=wrap;html=1;" vertex="1" parent="-rqSo3ZuX7UEkUnwsxKw-1">
          <mxGeometry y="300" width="820" height="860" as="geometry" />
        </mxCell>
        <mxCell id="-rqSo3ZuX7UEkUnwsxKw-22" value="&lt;b&gt;Buscador Texto&lt;/b&gt;" style="rounded=1;whiteSpace=wrap;html=1;" vertex="1" parent="-rqSo3ZuX7UEkUnwsxKw-1">
          <mxGeometry x="150" y="320" width="460" height="30" as="geometry" />
        </mxCell>
        <mxCell id="-rqSo3ZuX7UEkUnwsxKw-23" value="Buscar" style="rounded=1;whiteSpace=wrap;html=1;" vertex="1" parent="-rqSo3ZuX7UEkUnwsxKw-1">
          <mxGeometry x="673" y="320" width="77" height="30" as="geometry" />
        </mxCell>
        <mxCell id="-rqSo3ZuX7UEkUnwsxKw-24" value="" style="rounded=0;whiteSpace=wrap;html=1;" vertex="1" parent="-rqSo3ZuX7UEkUnwsxKw-1">
          <mxGeometry x="22.5" y="440" width="17" height="20" as="geometry" />
        </mxCell>
        <mxCell id="-rqSo3ZuX7UEkUnwsxKw-25" value="Tipo Contenido" style="text;html=1;align=center;verticalAlign=middle;whiteSpace=wrap;rounded=0;" vertex="1" parent="-rqSo3ZuX7UEkUnwsxKw-1">
          <mxGeometry x="22.5" y="390" width="87.5" height="30" as="geometry" />
        </mxCell>
        <mxCell id="-rqSo3ZuX7UEkUnwsxKw-26" value="" style="endArrow=none;html=1;rounded=0;" edge="1" parent="-rqSo3ZuX7UEkUnwsxKw-1">
          <mxGeometry width="50" height="50" relative="1" as="geometry">
            <mxPoint x="26.25" y="420" as="sourcePoint" />
            <mxPoint x="106.25" y="420" as="targetPoint" />
          </mxGeometry>
        </mxCell>
        <mxCell id="-rqSo3ZuX7UEkUnwsxKw-27" value="Tipo Contenido" style="text;html=1;align=center;verticalAlign=middle;whiteSpace=wrap;rounded=0;" vertex="1" parent="-rqSo3ZuX7UEkUnwsxKw-1">
          <mxGeometry x="39.5" y="435" width="90.5" height="30" as="geometry" />
        </mxCell>
        <mxCell id="-rqSo3ZuX7UEkUnwsxKw-28" value="" style="rounded=0;whiteSpace=wrap;html=1;" vertex="1" parent="-rqSo3ZuX7UEkUnwsxKw-1">
          <mxGeometry x="22.5" y="470" width="17" height="20" as="geometry" />
        </mxCell>
        <mxCell id="-rqSo3ZuX7UEkUnwsxKw-29" value="Tipo Contenido" style="text;html=1;align=center;verticalAlign=middle;whiteSpace=wrap;rounded=0;" vertex="1" parent="-rqSo3ZuX7UEkUnwsxKw-1">
          <mxGeometry x="39.5" y="465" width="90.5" height="30" as="geometry" />
        </mxCell>
        <mxCell id="-rqSo3ZuX7UEkUnwsxKw-30" value="" style="rounded=0;whiteSpace=wrap;html=1;" vertex="1" parent="-rqSo3ZuX7UEkUnwsxKw-1">
          <mxGeometry x="22.5" y="495" width="17" height="20" as="geometry" />
        </mxCell>
        <mxCell id="-rqSo3ZuX7UEkUnwsxKw-31" value="Tipo Contenido" style="text;html=1;align=center;verticalAlign=middle;whiteSpace=wrap;rounded=0;" vertex="1" parent="-rqSo3ZuX7UEkUnwsxKw-1">
          <mxGeometry x="39.5" y="490" width="90.5" height="30" as="geometry" />
        </mxCell>
        <mxCell id="-rqSo3ZuX7UEkUnwsxKw-32" value="" style="rounded=0;whiteSpace=wrap;html=1;" vertex="1" parent="-rqSo3ZuX7UEkUnwsxKw-1">
          <mxGeometry x="22.5" y="520" width="17" height="20" as="geometry" />
        </mxCell>
        <mxCell id="-rqSo3ZuX7UEkUnwsxKw-33" value="Tipo Contenido" style="text;html=1;align=center;verticalAlign=middle;whiteSpace=wrap;rounded=0;" vertex="1" parent="-rqSo3ZuX7UEkUnwsxKw-1">
          <mxGeometry x="39.5" y="515" width="90.5" height="30" as="geometry" />
        </mxCell>
        <mxCell id="-rqSo3ZuX7UEkUnwsxKw-94" value="" style="whiteSpace=wrap;html=1;aspect=fixed;" vertex="1" parent="-rqSo3ZuX7UEkUnwsxKw-1">
          <mxGeometry x="22.5" y="110" width="143" height="143" as="geometry" />
        </mxCell>
        <mxCell id="-rqSo3ZuX7UEkUnwsxKw-95" value="" style="endArrow=none;html=1;rounded=0;exitX=0;exitY=0;exitDx=0;exitDy=0;entryX=1;entryY=1;entryDx=0;entryDy=0;" edge="1" parent="-rqSo3ZuX7UEkUnwsxKw-1" source="-rqSo3ZuX7UEkUnwsxKw-94" target="-rqSo3ZuX7UEkUnwsxKw-94">
          <mxGeometry width="50" height="50" relative="1" as="geometry">
            <mxPoint x="213" y="225" as="sourcePoint" />
            <mxPoint x="263" y="175" as="targetPoint" />
          </mxGeometry>
        </mxCell>
        <mxCell id="-rqSo3ZuX7UEkUnwsxKw-96" value="" style="endArrow=none;html=1;rounded=0;exitX=0;exitY=1;exitDx=0;exitDy=0;entryX=1;entryY=0;entryDx=0;entryDy=0;" edge="1" parent="-rqSo3ZuX7UEkUnwsxKw-1" source="-rqSo3ZuX7UEkUnwsxKw-94" target="-rqSo3ZuX7UEkUnwsxKw-94">
          <mxGeometry width="50" height="50" relative="1" as="geometry">
            <mxPoint x="390" y="440" as="sourcePoint" />
            <mxPoint x="440" y="390" as="targetPoint" />
          </mxGeometry>
        </mxCell>
        <mxCell id="-rqSo3ZuX7UEkUnwsxKw-97" value="Editar Descripción" style="text;html=1;align=center;verticalAlign=middle;whiteSpace=wrap;rounded=0;" vertex="1" parent="-rqSo3ZuX7UEkUnwsxKw-1">
          <mxGeometry x="710" y="90" width="110" height="30" as="geometry" />
        </mxCell>
        <mxCell id="-rqSo3ZuX7UEkUnwsxKw-99" value="Subidas" style="rounded=0;whiteSpace=wrap;html=1;" vertex="1" parent="-rqSo3ZuX7UEkUnwsxKw-1">
          <mxGeometry x="150" y="270" width="60" height="30" as="geometry" />
        </mxCell>
        <mxCell id="-rqSo3ZuX7UEkUnwsxKw-138" value="Favoritos" style="rounded=0;whiteSpace=wrap;html=1;" vertex="1" parent="-rqSo3ZuX7UEkUnwsxKw-1">
          <mxGeometry x="210" y="270" width="60" height="30" as="geometry" />
        </mxCell>
        <UserObject label="" link="data:page/id,IAW55RW-1b6eh70SpbsO" id="-rqSo3ZuX7UEkUnwsxKw-139">
          <mxCell style="shape=flexArrow;endArrow=classic;html=1;rounded=0;" edge="1" parent="-rqSo3ZuX7UEkUnwsxKw-1">
            <mxGeometry width="50" height="50" relative="1" as="geometry">
              <mxPoint x="510" y="60" as="sourcePoint" />
              <mxPoint x="510" y="20" as="targetPoint" />
            </mxGeometry>
          </mxCell>
        </UserObject>
        <mxCell id="-rqSo3ZuX7UEkUnwsxKw-34" value="" style="rounded=0;whiteSpace=wrap;html=1;" vertex="1" parent="1">
          <mxGeometry x="150" y="380" width="670" height="780" as="geometry" />
        </mxCell>
        <mxCell id="-rqSo3ZuX7UEkUnwsxKw-35" value="" style="group" vertex="1" connectable="0" parent="1">
          <mxGeometry x="180" y="410" width="170" height="200" as="geometry" />
        </mxCell>
        <mxCell id="-rqSo3ZuX7UEkUnwsxKw-36" value="" style="rounded=1;whiteSpace=wrap;html=1;movable=1;resizable=1;rotatable=1;deletable=1;editable=1;locked=0;connectable=1;" vertex="1" parent="-rqSo3ZuX7UEkUnwsxKw-35">
          <mxGeometry width="170" height="200" as="geometry" />
        </mxCell>
        <mxCell id="-rqSo3ZuX7UEkUnwsxKw-37" value="" style="rounded=0;whiteSpace=wrap;html=1;movable=1;resizable=1;rotatable=1;deletable=1;editable=1;locked=0;connectable=1;" vertex="1" parent="-rqSo3ZuX7UEkUnwsxKw-35">
          <mxGeometry x="10" y="10" width="150" height="110" as="geometry" />
        </mxCell>
        <mxCell id="-rqSo3ZuX7UEkUnwsxKw-38" value="" style="endArrow=none;html=1;rounded=0;exitX=0;exitY=0;exitDx=0;exitDy=0;entryX=1;entryY=1;entryDx=0;entryDy=0;movable=1;resizable=1;rotatable=1;deletable=1;editable=1;locked=0;connectable=1;" edge="1" parent="-rqSo3ZuX7UEkUnwsxKw-35" source="-rqSo3ZuX7UEkUnwsxKw-37" target="-rqSo3ZuX7UEkUnwsxKw-37">
          <mxGeometry width="50" height="50" relative="1" as="geometry">
            <mxPoint x="210" y="160" as="sourcePoint" />
            <mxPoint x="260" y="110" as="targetPoint" />
          </mxGeometry>
        </mxCell>
        <mxCell id="-rqSo3ZuX7UEkUnwsxKw-39" value="" style="endArrow=none;html=1;rounded=0;exitX=0;exitY=1;exitDx=0;exitDy=0;entryX=1;entryY=0;entryDx=0;entryDy=0;movable=1;resizable=1;rotatable=1;deletable=1;editable=1;locked=0;connectable=1;" edge="1" parent="-rqSo3ZuX7UEkUnwsxKw-35" source="-rqSo3ZuX7UEkUnwsxKw-37" target="-rqSo3ZuX7UEkUnwsxKw-37">
          <mxGeometry width="50" height="50" relative="1" as="geometry">
            <mxPoint x="210" y="160" as="sourcePoint" />
            <mxPoint x="260" y="110" as="targetPoint" />
          </mxGeometry>
        </mxCell>
        <mxCell id="-rqSo3ZuX7UEkUnwsxKw-40" value="Nombre" style="text;html=1;align=center;verticalAlign=middle;whiteSpace=wrap;rounded=0;movable=1;resizable=1;rotatable=1;deletable=1;editable=1;locked=0;connectable=1;" vertex="1" parent="-rqSo3ZuX7UEkUnwsxKw-35">
          <mxGeometry x="55" y="140" width="60" height="30" as="geometry" />
        </mxCell>
        <mxCell id="-rqSo3ZuX7UEkUnwsxKw-41" value="" style="group" vertex="1" connectable="0" parent="1">
          <mxGeometry x="400" y="410" width="170" height="200" as="geometry" />
        </mxCell>
        <mxCell id="-rqSo3ZuX7UEkUnwsxKw-42" value="" style="rounded=1;whiteSpace=wrap;html=1;movable=1;resizable=1;rotatable=1;deletable=1;editable=1;locked=0;connectable=1;" vertex="1" parent="-rqSo3ZuX7UEkUnwsxKw-41">
          <mxGeometry width="170" height="200" as="geometry" />
        </mxCell>
        <mxCell id="-rqSo3ZuX7UEkUnwsxKw-43" value="" style="rounded=0;whiteSpace=wrap;html=1;movable=1;resizable=1;rotatable=1;deletable=1;editable=1;locked=0;connectable=1;" vertex="1" parent="-rqSo3ZuX7UEkUnwsxKw-41">
          <mxGeometry x="10" y="10" width="150" height="110" as="geometry" />
        </mxCell>
        <mxCell id="-rqSo3ZuX7UEkUnwsxKw-44" value="" style="endArrow=none;html=1;rounded=0;exitX=0;exitY=0;exitDx=0;exitDy=0;entryX=1;entryY=1;entryDx=0;entryDy=0;movable=1;resizable=1;rotatable=1;deletable=1;editable=1;locked=0;connectable=1;" edge="1" parent="-rqSo3ZuX7UEkUnwsxKw-41" source="-rqSo3ZuX7UEkUnwsxKw-43" target="-rqSo3ZuX7UEkUnwsxKw-43">
          <mxGeometry width="50" height="50" relative="1" as="geometry">
            <mxPoint x="210" y="160" as="sourcePoint" />
            <mxPoint x="260" y="110" as="targetPoint" />
          </mxGeometry>
        </mxCell>
        <mxCell id="-rqSo3ZuX7UEkUnwsxKw-45" value="" style="endArrow=none;html=1;rounded=0;exitX=0;exitY=1;exitDx=0;exitDy=0;entryX=1;entryY=0;entryDx=0;entryDy=0;movable=1;resizable=1;rotatable=1;deletable=1;editable=1;locked=0;connectable=1;" edge="1" parent="-rqSo3ZuX7UEkUnwsxKw-41" source="-rqSo3ZuX7UEkUnwsxKw-43" target="-rqSo3ZuX7UEkUnwsxKw-43">
          <mxGeometry width="50" height="50" relative="1" as="geometry">
            <mxPoint x="210" y="160" as="sourcePoint" />
            <mxPoint x="260" y="110" as="targetPoint" />
          </mxGeometry>
        </mxCell>
        <mxCell id="-rqSo3ZuX7UEkUnwsxKw-46" value="Nombre" style="text;html=1;align=center;verticalAlign=middle;whiteSpace=wrap;rounded=0;movable=1;resizable=1;rotatable=1;deletable=1;editable=1;locked=0;connectable=1;" vertex="1" parent="-rqSo3ZuX7UEkUnwsxKw-41">
          <mxGeometry x="55" y="140" width="60" height="30" as="geometry" />
        </mxCell>
        <mxCell id="-rqSo3ZuX7UEkUnwsxKw-47" value="" style="group" vertex="1" connectable="0" parent="1">
          <mxGeometry x="620" y="410" width="200" height="750" as="geometry" />
        </mxCell>
        <mxCell id="-rqSo3ZuX7UEkUnwsxKw-48" value="" style="rounded=1;whiteSpace=wrap;html=1;movable=1;resizable=1;rotatable=1;deletable=1;editable=1;locked=0;connectable=1;" vertex="1" parent="-rqSo3ZuX7UEkUnwsxKw-47">
          <mxGeometry width="170" height="200" as="geometry" />
        </mxCell>
        <mxCell id="-rqSo3ZuX7UEkUnwsxKw-49" value="" style="rounded=0;whiteSpace=wrap;html=1;movable=1;resizable=1;rotatable=1;deletable=1;editable=1;locked=0;connectable=1;" vertex="1" parent="-rqSo3ZuX7UEkUnwsxKw-47">
          <mxGeometry x="10" y="10" width="150" height="110" as="geometry" />
        </mxCell>
        <mxCell id="-rqSo3ZuX7UEkUnwsxKw-50" value="" style="endArrow=none;html=1;rounded=0;exitX=0;exitY=0;exitDx=0;exitDy=0;entryX=1;entryY=1;entryDx=0;entryDy=0;movable=1;resizable=1;rotatable=1;deletable=1;editable=1;locked=0;connectable=1;" edge="1" parent="-rqSo3ZuX7UEkUnwsxKw-47" source="-rqSo3ZuX7UEkUnwsxKw-49" target="-rqSo3ZuX7UEkUnwsxKw-49">
          <mxGeometry width="50" height="50" relative="1" as="geometry">
            <mxPoint x="210" y="160" as="sourcePoint" />
            <mxPoint x="260" y="110" as="targetPoint" />
          </mxGeometry>
        </mxCell>
        <mxCell id="-rqSo3ZuX7UEkUnwsxKw-51" value="" style="endArrow=none;html=1;rounded=0;exitX=0;exitY=1;exitDx=0;exitDy=0;entryX=1;entryY=0;entryDx=0;entryDy=0;movable=1;resizable=1;rotatable=1;deletable=1;editable=1;locked=0;connectable=1;" edge="1" parent="-rqSo3ZuX7UEkUnwsxKw-47" source="-rqSo3ZuX7UEkUnwsxKw-49" target="-rqSo3ZuX7UEkUnwsxKw-49">
          <mxGeometry width="50" height="50" relative="1" as="geometry">
            <mxPoint x="210" y="160" as="sourcePoint" />
            <mxPoint x="260" y="110" as="targetPoint" />
          </mxGeometry>
        </mxCell>
        <mxCell id="-rqSo3ZuX7UEkUnwsxKw-52" value="Nombre" style="text;html=1;align=center;verticalAlign=middle;whiteSpace=wrap;rounded=0;movable=1;resizable=1;rotatable=1;deletable=1;editable=1;locked=0;connectable=1;" vertex="1" parent="-rqSo3ZuX7UEkUnwsxKw-47">
          <mxGeometry x="55" y="140" width="60" height="30" as="geometry" />
        </mxCell>
        <mxCell id="-rqSo3ZuX7UEkUnwsxKw-53" value="" style="rounded=0;whiteSpace=wrap;html=1;" vertex="1" parent="-rqSo3ZuX7UEkUnwsxKw-47">
          <mxGeometry x="180" y="-30" width="20" height="780" as="geometry" />
        </mxCell>
        <mxCell id="-rqSo3ZuX7UEkUnwsxKw-54" value="" style="shape=flexArrow;endArrow=classic;html=1;rounded=0;width=2;endSize=4.33;endWidth=12;" edge="1" parent="-rqSo3ZuX7UEkUnwsxKw-47">
          <mxGeometry width="50" height="50" relative="1" as="geometry">
            <mxPoint x="189.5" y="700" as="sourcePoint" />
            <mxPoint x="189.5" y="750" as="targetPoint" />
          </mxGeometry>
        </mxCell>
        <mxCell id="-rqSo3ZuX7UEkUnwsxKw-55" value="" style="shape=flexArrow;endArrow=classic;html=1;rounded=0;width=2;endSize=4.33;endWidth=12;" edge="1" parent="-rqSo3ZuX7UEkUnwsxKw-47">
          <mxGeometry width="50" height="50" relative="1" as="geometry">
            <mxPoint x="189.5" y="20" as="sourcePoint" />
            <mxPoint x="189.5" y="-30" as="targetPoint" />
          </mxGeometry>
        </mxCell>
        <mxCell id="-rqSo3ZuX7UEkUnwsxKw-56" value="" style="endArrow=none;html=1;rounded=0;" edge="1" parent="-rqSo3ZuX7UEkUnwsxKw-47">
          <mxGeometry width="50" height="50" relative="1" as="geometry">
            <mxPoint x="180" y="690" as="sourcePoint" />
            <mxPoint x="200" y="690" as="targetPoint" />
          </mxGeometry>
        </mxCell>
        <mxCell id="-rqSo3ZuX7UEkUnwsxKw-57" value="" style="endArrow=none;html=1;rounded=0;" edge="1" parent="-rqSo3ZuX7UEkUnwsxKw-47">
          <mxGeometry width="50" height="50" relative="1" as="geometry">
            <mxPoint x="180" y="30" as="sourcePoint" />
            <mxPoint x="200" y="30" as="targetPoint" />
          </mxGeometry>
        </mxCell>
        <mxCell id="-rqSo3ZuX7UEkUnwsxKw-58" value="" style="group" vertex="1" connectable="0" parent="1">
          <mxGeometry x="180" y="630" width="170" height="200" as="geometry" />
        </mxCell>
        <mxCell id="-rqSo3ZuX7UEkUnwsxKw-59" value="" style="rounded=1;whiteSpace=wrap;html=1;movable=1;resizable=1;rotatable=1;deletable=1;editable=1;locked=0;connectable=1;" vertex="1" parent="-rqSo3ZuX7UEkUnwsxKw-58">
          <mxGeometry width="170" height="200" as="geometry" />
        </mxCell>
        <mxCell id="-rqSo3ZuX7UEkUnwsxKw-60" value="" style="rounded=0;whiteSpace=wrap;html=1;movable=1;resizable=1;rotatable=1;deletable=1;editable=1;locked=0;connectable=1;" vertex="1" parent="-rqSo3ZuX7UEkUnwsxKw-58">
          <mxGeometry x="10" y="10" width="150" height="110" as="geometry" />
        </mxCell>
        <mxCell id="-rqSo3ZuX7UEkUnwsxKw-61" value="" style="endArrow=none;html=1;rounded=0;exitX=0;exitY=0;exitDx=0;exitDy=0;entryX=1;entryY=1;entryDx=0;entryDy=0;movable=1;resizable=1;rotatable=1;deletable=1;editable=1;locked=0;connectable=1;" edge="1" parent="-rqSo3ZuX7UEkUnwsxKw-58" source="-rqSo3ZuX7UEkUnwsxKw-60" target="-rqSo3ZuX7UEkUnwsxKw-60">
          <mxGeometry width="50" height="50" relative="1" as="geometry">
            <mxPoint x="210" y="160" as="sourcePoint" />
            <mxPoint x="260" y="110" as="targetPoint" />
          </mxGeometry>
        </mxCell>
        <mxCell id="-rqSo3ZuX7UEkUnwsxKw-62" value="" style="endArrow=none;html=1;rounded=0;exitX=0;exitY=1;exitDx=0;exitDy=0;entryX=1;entryY=0;entryDx=0;entryDy=0;movable=1;resizable=1;rotatable=1;deletable=1;editable=1;locked=0;connectable=1;" edge="1" parent="-rqSo3ZuX7UEkUnwsxKw-58" source="-rqSo3ZuX7UEkUnwsxKw-60" target="-rqSo3ZuX7UEkUnwsxKw-60">
          <mxGeometry width="50" height="50" relative="1" as="geometry">
            <mxPoint x="210" y="160" as="sourcePoint" />
            <mxPoint x="260" y="110" as="targetPoint" />
          </mxGeometry>
        </mxCell>
        <mxCell id="-rqSo3ZuX7UEkUnwsxKw-63" value="Nombre" style="text;html=1;align=center;verticalAlign=middle;whiteSpace=wrap;rounded=0;movable=1;resizable=1;rotatable=1;deletable=1;editable=1;locked=0;connectable=1;" vertex="1" parent="-rqSo3ZuX7UEkUnwsxKw-58">
          <mxGeometry x="55" y="140" width="60" height="30" as="geometry" />
        </mxCell>
        <mxCell id="-rqSo3ZuX7UEkUnwsxKw-64" value="" style="group" vertex="1" connectable="0" parent="1">
          <mxGeometry x="180" y="870" width="170" height="200" as="geometry" />
        </mxCell>
        <mxCell id="-rqSo3ZuX7UEkUnwsxKw-65" value="" style="rounded=1;whiteSpace=wrap;html=1;movable=1;resizable=1;rotatable=1;deletable=1;editable=1;locked=0;connectable=1;" vertex="1" parent="-rqSo3ZuX7UEkUnwsxKw-64">
          <mxGeometry width="170" height="200" as="geometry" />
        </mxCell>
        <mxCell id="-rqSo3ZuX7UEkUnwsxKw-66" value="" style="rounded=0;whiteSpace=wrap;html=1;movable=1;resizable=1;rotatable=1;deletable=1;editable=1;locked=0;connectable=1;" vertex="1" parent="-rqSo3ZuX7UEkUnwsxKw-64">
          <mxGeometry x="10" y="10" width="150" height="110" as="geometry" />
        </mxCell>
        <mxCell id="-rqSo3ZuX7UEkUnwsxKw-67" value="" style="endArrow=none;html=1;rounded=0;exitX=0;exitY=0;exitDx=0;exitDy=0;entryX=1;entryY=1;entryDx=0;entryDy=0;movable=1;resizable=1;rotatable=1;deletable=1;editable=1;locked=0;connectable=1;" edge="1" parent="-rqSo3ZuX7UEkUnwsxKw-64" source="-rqSo3ZuX7UEkUnwsxKw-66" target="-rqSo3ZuX7UEkUnwsxKw-66">
          <mxGeometry width="50" height="50" relative="1" as="geometry">
            <mxPoint x="210" y="160" as="sourcePoint" />
            <mxPoint x="260" y="110" as="targetPoint" />
          </mxGeometry>
        </mxCell>
        <mxCell id="-rqSo3ZuX7UEkUnwsxKw-68" value="" style="endArrow=none;html=1;rounded=0;exitX=0;exitY=1;exitDx=0;exitDy=0;entryX=1;entryY=0;entryDx=0;entryDy=0;movable=1;resizable=1;rotatable=1;deletable=1;editable=1;locked=0;connectable=1;" edge="1" parent="-rqSo3ZuX7UEkUnwsxKw-64" source="-rqSo3ZuX7UEkUnwsxKw-66" target="-rqSo3ZuX7UEkUnwsxKw-66">
          <mxGeometry width="50" height="50" relative="1" as="geometry">
            <mxPoint x="210" y="160" as="sourcePoint" />
            <mxPoint x="260" y="110" as="targetPoint" />
          </mxGeometry>
        </mxCell>
        <mxCell id="-rqSo3ZuX7UEkUnwsxKw-69" value="Nombre" style="text;html=1;align=center;verticalAlign=middle;whiteSpace=wrap;rounded=0;movable=1;resizable=1;rotatable=1;deletable=1;editable=1;locked=0;connectable=1;" vertex="1" parent="-rqSo3ZuX7UEkUnwsxKw-64">
          <mxGeometry x="55" y="140" width="60" height="30" as="geometry" />
        </mxCell>
        <mxCell id="-rqSo3ZuX7UEkUnwsxKw-70" value="" style="group" vertex="1" connectable="0" parent="1">
          <mxGeometry x="400" y="630" width="170" height="200" as="geometry" />
        </mxCell>
        <mxCell id="-rqSo3ZuX7UEkUnwsxKw-71" value="" style="rounded=1;whiteSpace=wrap;html=1;movable=1;resizable=1;rotatable=1;deletable=1;editable=1;locked=0;connectable=1;" vertex="1" parent="-rqSo3ZuX7UEkUnwsxKw-70">
          <mxGeometry width="170" height="200" as="geometry" />
        </mxCell>
        <mxCell id="-rqSo3ZuX7UEkUnwsxKw-72" value="" style="rounded=0;whiteSpace=wrap;html=1;movable=1;resizable=1;rotatable=1;deletable=1;editable=1;locked=0;connectable=1;" vertex="1" parent="-rqSo3ZuX7UEkUnwsxKw-70">
          <mxGeometry x="10" y="10" width="150" height="110" as="geometry" />
        </mxCell>
        <mxCell id="-rqSo3ZuX7UEkUnwsxKw-73" value="" style="endArrow=none;html=1;rounded=0;exitX=0;exitY=0;exitDx=0;exitDy=0;entryX=1;entryY=1;entryDx=0;entryDy=0;movable=1;resizable=1;rotatable=1;deletable=1;editable=1;locked=0;connectable=1;" edge="1" parent="-rqSo3ZuX7UEkUnwsxKw-70" source="-rqSo3ZuX7UEkUnwsxKw-72" target="-rqSo3ZuX7UEkUnwsxKw-72">
          <mxGeometry width="50" height="50" relative="1" as="geometry">
            <mxPoint x="210" y="160" as="sourcePoint" />
            <mxPoint x="260" y="110" as="targetPoint" />
          </mxGeometry>
        </mxCell>
        <mxCell id="-rqSo3ZuX7UEkUnwsxKw-74" value="" style="endArrow=none;html=1;rounded=0;exitX=0;exitY=1;exitDx=0;exitDy=0;entryX=1;entryY=0;entryDx=0;entryDy=0;movable=1;resizable=1;rotatable=1;deletable=1;editable=1;locked=0;connectable=1;" edge="1" parent="-rqSo3ZuX7UEkUnwsxKw-70" source="-rqSo3ZuX7UEkUnwsxKw-72" target="-rqSo3ZuX7UEkUnwsxKw-72">
          <mxGeometry width="50" height="50" relative="1" as="geometry">
            <mxPoint x="210" y="160" as="sourcePoint" />
            <mxPoint x="260" y="110" as="targetPoint" />
          </mxGeometry>
        </mxCell>
        <mxCell id="-rqSo3ZuX7UEkUnwsxKw-75" value="Nombre" style="text;html=1;align=center;verticalAlign=middle;whiteSpace=wrap;rounded=0;movable=1;resizable=1;rotatable=1;deletable=1;editable=1;locked=0;connectable=1;" vertex="1" parent="-rqSo3ZuX7UEkUnwsxKw-70">
          <mxGeometry x="55" y="140" width="60" height="30" as="geometry" />
        </mxCell>
        <mxCell id="-rqSo3ZuX7UEkUnwsxKw-76" value="" style="group" vertex="1" connectable="0" parent="1">
          <mxGeometry x="400" y="870" width="170" height="200" as="geometry" />
        </mxCell>
        <mxCell id="-rqSo3ZuX7UEkUnwsxKw-77" value="" style="rounded=1;whiteSpace=wrap;html=1;movable=1;resizable=1;rotatable=1;deletable=1;editable=1;locked=0;connectable=1;" vertex="1" parent="-rqSo3ZuX7UEkUnwsxKw-76">
          <mxGeometry width="170" height="200" as="geometry" />
        </mxCell>
        <mxCell id="-rqSo3ZuX7UEkUnwsxKw-78" value="" style="rounded=0;whiteSpace=wrap;html=1;movable=1;resizable=1;rotatable=1;deletable=1;editable=1;locked=0;connectable=1;" vertex="1" parent="-rqSo3ZuX7UEkUnwsxKw-76">
          <mxGeometry x="10" y="10" width="150" height="110" as="geometry" />
        </mxCell>
        <mxCell id="-rqSo3ZuX7UEkUnwsxKw-79" value="" style="endArrow=none;html=1;rounded=0;exitX=0;exitY=0;exitDx=0;exitDy=0;entryX=1;entryY=1;entryDx=0;entryDy=0;movable=1;resizable=1;rotatable=1;deletable=1;editable=1;locked=0;connectable=1;" edge="1" parent="-rqSo3ZuX7UEkUnwsxKw-76" source="-rqSo3ZuX7UEkUnwsxKw-78" target="-rqSo3ZuX7UEkUnwsxKw-78">
          <mxGeometry width="50" height="50" relative="1" as="geometry">
            <mxPoint x="210" y="160" as="sourcePoint" />
            <mxPoint x="260" y="110" as="targetPoint" />
          </mxGeometry>
        </mxCell>
        <mxCell id="-rqSo3ZuX7UEkUnwsxKw-80" value="" style="endArrow=none;html=1;rounded=0;exitX=0;exitY=1;exitDx=0;exitDy=0;entryX=1;entryY=0;entryDx=0;entryDy=0;movable=1;resizable=1;rotatable=1;deletable=1;editable=1;locked=0;connectable=1;" edge="1" parent="-rqSo3ZuX7UEkUnwsxKw-76" source="-rqSo3ZuX7UEkUnwsxKw-78" target="-rqSo3ZuX7UEkUnwsxKw-78">
          <mxGeometry width="50" height="50" relative="1" as="geometry">
            <mxPoint x="210" y="160" as="sourcePoint" />
            <mxPoint x="260" y="110" as="targetPoint" />
          </mxGeometry>
        </mxCell>
        <mxCell id="-rqSo3ZuX7UEkUnwsxKw-81" value="Nombre" style="text;html=1;align=center;verticalAlign=middle;whiteSpace=wrap;rounded=0;movable=1;resizable=1;rotatable=1;deletable=1;editable=1;locked=0;connectable=1;" vertex="1" parent="-rqSo3ZuX7UEkUnwsxKw-76">
          <mxGeometry x="55" y="140" width="60" height="30" as="geometry" />
        </mxCell>
        <mxCell id="-rqSo3ZuX7UEkUnwsxKw-82" value="" style="group" vertex="1" connectable="0" parent="1">
          <mxGeometry x="620" y="630" width="170" height="200" as="geometry" />
        </mxCell>
        <mxCell id="-rqSo3ZuX7UEkUnwsxKw-83" value="" style="rounded=1;whiteSpace=wrap;html=1;movable=1;resizable=1;rotatable=1;deletable=1;editable=1;locked=0;connectable=1;" vertex="1" parent="-rqSo3ZuX7UEkUnwsxKw-82">
          <mxGeometry width="170" height="200" as="geometry" />
        </mxCell>
        <mxCell id="-rqSo3ZuX7UEkUnwsxKw-84" value="" style="rounded=0;whiteSpace=wrap;html=1;movable=1;resizable=1;rotatable=1;deletable=1;editable=1;locked=0;connectable=1;" vertex="1" parent="-rqSo3ZuX7UEkUnwsxKw-82">
          <mxGeometry x="10" y="10" width="150" height="110" as="geometry" />
        </mxCell>
        <mxCell id="-rqSo3ZuX7UEkUnwsxKw-85" value="" style="endArrow=none;html=1;rounded=0;exitX=0;exitY=0;exitDx=0;exitDy=0;entryX=1;entryY=1;entryDx=0;entryDy=0;movable=1;resizable=1;rotatable=1;deletable=1;editable=1;locked=0;connectable=1;" edge="1" parent="-rqSo3ZuX7UEkUnwsxKw-82" source="-rqSo3ZuX7UEkUnwsxKw-84" target="-rqSo3ZuX7UEkUnwsxKw-84">
          <mxGeometry width="50" height="50" relative="1" as="geometry">
            <mxPoint x="210" y="160" as="sourcePoint" />
            <mxPoint x="260" y="110" as="targetPoint" />
          </mxGeometry>
        </mxCell>
        <mxCell id="-rqSo3ZuX7UEkUnwsxKw-86" value="" style="endArrow=none;html=1;rounded=0;exitX=0;exitY=1;exitDx=0;exitDy=0;entryX=1;entryY=0;entryDx=0;entryDy=0;movable=1;resizable=1;rotatable=1;deletable=1;editable=1;locked=0;connectable=1;" edge="1" parent="-rqSo3ZuX7UEkUnwsxKw-82" source="-rqSo3ZuX7UEkUnwsxKw-84" target="-rqSo3ZuX7UEkUnwsxKw-84">
          <mxGeometry width="50" height="50" relative="1" as="geometry">
            <mxPoint x="210" y="160" as="sourcePoint" />
            <mxPoint x="260" y="110" as="targetPoint" />
          </mxGeometry>
        </mxCell>
        <mxCell id="-rqSo3ZuX7UEkUnwsxKw-87" value="Nombre" style="text;html=1;align=center;verticalAlign=middle;whiteSpace=wrap;rounded=0;movable=1;resizable=1;rotatable=1;deletable=1;editable=1;locked=0;connectable=1;" vertex="1" parent="-rqSo3ZuX7UEkUnwsxKw-82">
          <mxGeometry x="55" y="140" width="60" height="30" as="geometry" />
        </mxCell>
        <mxCell id="-rqSo3ZuX7UEkUnwsxKw-88" value="" style="group" vertex="1" connectable="0" parent="1">
          <mxGeometry x="620" y="870" width="170" height="200" as="geometry" />
        </mxCell>
        <mxCell id="-rqSo3ZuX7UEkUnwsxKw-89" value="" style="rounded=1;whiteSpace=wrap;html=1;movable=1;resizable=1;rotatable=1;deletable=1;editable=1;locked=0;connectable=1;" vertex="1" parent="-rqSo3ZuX7UEkUnwsxKw-88">
          <mxGeometry width="170" height="200" as="geometry" />
        </mxCell>
        <mxCell id="-rqSo3ZuX7UEkUnwsxKw-90" value="" style="rounded=0;whiteSpace=wrap;html=1;movable=1;resizable=1;rotatable=1;deletable=1;editable=1;locked=0;connectable=1;" vertex="1" parent="-rqSo3ZuX7UEkUnwsxKw-88">
          <mxGeometry x="10" y="10" width="150" height="110" as="geometry" />
        </mxCell>
        <mxCell id="-rqSo3ZuX7UEkUnwsxKw-91" value="" style="endArrow=none;html=1;rounded=0;exitX=0;exitY=0;exitDx=0;exitDy=0;entryX=1;entryY=1;entryDx=0;entryDy=0;movable=1;resizable=1;rotatable=1;deletable=1;editable=1;locked=0;connectable=1;" edge="1" parent="-rqSo3ZuX7UEkUnwsxKw-88" source="-rqSo3ZuX7UEkUnwsxKw-90" target="-rqSo3ZuX7UEkUnwsxKw-90">
          <mxGeometry width="50" height="50" relative="1" as="geometry">
            <mxPoint x="210" y="160" as="sourcePoint" />
            <mxPoint x="260" y="110" as="targetPoint" />
          </mxGeometry>
        </mxCell>
        <mxCell id="-rqSo3ZuX7UEkUnwsxKw-92" value="" style="endArrow=none;html=1;rounded=0;exitX=0;exitY=1;exitDx=0;exitDy=0;entryX=1;entryY=0;entryDx=0;entryDy=0;movable=1;resizable=1;rotatable=1;deletable=1;editable=1;locked=0;connectable=1;" edge="1" parent="-rqSo3ZuX7UEkUnwsxKw-88" source="-rqSo3ZuX7UEkUnwsxKw-90" target="-rqSo3ZuX7UEkUnwsxKw-90">
          <mxGeometry width="50" height="50" relative="1" as="geometry">
            <mxPoint x="210" y="160" as="sourcePoint" />
            <mxPoint x="260" y="110" as="targetPoint" />
          </mxGeometry>
        </mxCell>
        <mxCell id="-rqSo3ZuX7UEkUnwsxKw-93" value="Nombre" style="text;html=1;align=center;verticalAlign=middle;whiteSpace=wrap;rounded=0;movable=1;resizable=1;rotatable=1;deletable=1;editable=1;locked=0;connectable=1;" vertex="1" parent="-rqSo3ZuX7UEkUnwsxKw-88">
          <mxGeometry x="55" y="140" width="60" height="30" as="geometry" />
        </mxCell>
      </root>
    </mxGraphModel>
  </diagram>
  <diagram id="IAW55RW-1b6eh70SpbsO" name="Subida">
    <mxGraphModel dx="1434" dy="780" grid="1" gridSize="10" guides="1" tooltips="1" connect="1" arrows="1" fold="1" page="1" pageScale="1" pageWidth="827" pageHeight="1169" math="0" shadow="0">
      <root>
        <mxCell id="0" />
        <mxCell id="1" parent="0" />
        <mxCell id="Kxpkx8Kjv7JTmc_ikyto-1" value="" style="group" vertex="1" connectable="0" parent="1">
          <mxGeometry width="820" height="1160" as="geometry" />
        </mxCell>
        <mxCell id="Kxpkx8Kjv7JTmc_ikyto-2" value="" style="rounded=0;whiteSpace=wrap;html=1;" vertex="1" parent="Kxpkx8Kjv7JTmc_ikyto-1">
          <mxGeometry width="820" height="1160" as="geometry" />
        </mxCell>
        <mxCell id="Kxpkx8Kjv7JTmc_ikyto-3" value="" style="rounded=0;whiteSpace=wrap;html=1;" vertex="1" parent="Kxpkx8Kjv7JTmc_ikyto-1">
          <mxGeometry width="820" height="80" as="geometry" />
        </mxCell>
        <UserObject label="" link="data:page/id,C5XJyP3ficeGiDk7JTWP" id="Kxpkx8Kjv7JTmc_ikyto-4">
          <mxCell style="shape=sumEllipse;perimeter=ellipsePerimeter;whiteSpace=wrap;html=1;backgroundOutline=1;" vertex="1" parent="Kxpkx8Kjv7JTmc_ikyto-1">
            <mxGeometry width="80" height="80" as="geometry" />
          </mxCell>
        </UserObject>
        <UserObject label="Nombre_usuario" link="data:page/id,Elu9vbW6ZCP34hRs17hx" id="Kxpkx8Kjv7JTmc_ikyto-5">
          <mxCell style="text;html=1;align=center;verticalAlign=middle;whiteSpace=wrap;rounded=0;" vertex="1" parent="Kxpkx8Kjv7JTmc_ikyto-1">
            <mxGeometry x="573" y="25" width="93" height="30" as="geometry" />
          </mxCell>
        </UserObject>
        <UserObject label="" link="data:page/id,Elu9vbW6ZCP34hRs17hx" id="Kxpkx8Kjv7JTmc_ikyto-6">
          <mxCell style="shape=sumEllipse;perimeter=ellipsePerimeter;whiteSpace=wrap;html=1;backgroundOutline=1;" vertex="1" parent="Kxpkx8Kjv7JTmc_ikyto-1">
            <mxGeometry x="533" y="20" width="40" height="40" as="geometry" />
          </mxCell>
        </UserObject>
        <UserObject label="Audios&lt;span style=&quot;color: rgba(0, 0, 0, 0); font-family: monospace; font-size: 0px; text-align: start; text-wrap: nowrap;&quot;&gt;%3CmxGraphModel%3E%3Croot%3E%3CmxCell%20id%3D%220%22%2F%3E%3CmxCell%20id%3D%221%22%20parent%3D%220%22%2F%3E%3CmxCell%20id%3D%222%22%20value%3D%22Cerrar%20Sesi%C3%B3n%22%20style%3D%22text%3Bhtml%3D1%3Balign%3Dcenter%3BverticalAlign%3Dmiddle%3BwhiteSpace%3Dwrap%3Brounded%3D0%3B%22%20vertex%3D%221%22%20parent%3D%221%22%3E%3CmxGeometry%20x%3D%22720%22%20y%3D%2225%22%20width%3D%2293%22%20height%3D%2230%22%20as%3D%22geometry%22%2F%3E%3C%2FmxCell%3E%3CmxCell%20id%3D%223%22%20value%3D%22%22%20style%3D%22shape%3DsumEllipse%3Bperimeter%3DellipsePerimeter%3BwhiteSpace%3Dwrap%3Bhtml%3D1%3BbackgroundOutline%3D1%3B%22%20vertex%3D%221%22%20parent%3D%221%22%3E%3CmxGeometry%20x%3D%22680%22%20y%3D%2220%22%20width%3D%2240%22%20height%3D%2240%22%20as%3D%22geometry%22%2F%3E%3C%2FmxCell%3E%3C%2Froot%3E%3C%2FmxGraphModel%3E&lt;/span&gt;" link="data:page/id,VksMP-APIKd3p9qy1frE" id="Kxpkx8Kjv7JTmc_ikyto-7">
          <mxCell style="text;html=1;align=center;verticalAlign=middle;whiteSpace=wrap;rounded=0;" vertex="1" parent="Kxpkx8Kjv7JTmc_ikyto-1">
            <mxGeometry x="120" y="25" width="93" height="30" as="geometry" />
          </mxCell>
        </UserObject>
        <UserObject label="" link="data:page/id,VksMP-APIKd3p9qy1frE" id="Kxpkx8Kjv7JTmc_ikyto-8">
          <mxCell style="shape=sumEllipse;perimeter=ellipsePerimeter;whiteSpace=wrap;html=1;backgroundOutline=1;" vertex="1" parent="Kxpkx8Kjv7JTmc_ikyto-1">
            <mxGeometry x="93" y="20" width="40" height="40" as="geometry" />
          </mxCell>
        </UserObject>
        <UserObject label="Libros/texto" link="data:page/id,VksMP-APIKd3p9qy1frE" id="Kxpkx8Kjv7JTmc_ikyto-9">
          <mxCell style="text;html=1;align=center;verticalAlign=middle;whiteSpace=wrap;rounded=0;" vertex="1" parent="Kxpkx8Kjv7JTmc_ikyto-1">
            <mxGeometry x="226" y="25" width="93" height="30" as="geometry" />
          </mxCell>
        </UserObject>
        <UserObject label="" link="data:page/id,VksMP-APIKd3p9qy1frE" id="Kxpkx8Kjv7JTmc_ikyto-10">
          <mxCell style="shape=sumEllipse;perimeter=ellipsePerimeter;whiteSpace=wrap;html=1;backgroundOutline=1;" vertex="1" parent="Kxpkx8Kjv7JTmc_ikyto-1">
            <mxGeometry x="193" y="20" width="40" height="40" as="geometry" />
          </mxCell>
        </UserObject>
        <UserObject label="Videos" link="data:page/id,VksMP-APIKd3p9qy1frE" id="Kxpkx8Kjv7JTmc_ikyto-11">
          <mxCell style="text;html=1;align=center;verticalAlign=middle;whiteSpace=wrap;rounded=0;" vertex="1" parent="Kxpkx8Kjv7JTmc_ikyto-1">
            <mxGeometry x="340" y="25" width="64" height="30" as="geometry" />
          </mxCell>
        </UserObject>
        <UserObject label="" link="data:page/id,VksMP-APIKd3p9qy1frE" id="Kxpkx8Kjv7JTmc_ikyto-12">
          <mxCell style="shape=sumEllipse;perimeter=ellipsePerimeter;whiteSpace=wrap;html=1;backgroundOutline=1;" vertex="1" parent="Kxpkx8Kjv7JTmc_ikyto-1">
            <mxGeometry x="306" y="20" width="40" height="40" as="geometry" />
          </mxCell>
        </UserObject>
        <UserObject label="Otros" link="data:page/id,VksMP-APIKd3p9qy1frE" id="Kxpkx8Kjv7JTmc_ikyto-13">
          <mxCell style="text;html=1;align=center;verticalAlign=middle;whiteSpace=wrap;rounded=0;" vertex="1" parent="Kxpkx8Kjv7JTmc_ikyto-1">
            <mxGeometry x="440" y="25" width="50" height="30" as="geometry" />
          </mxCell>
        </UserObject>
        <UserObject label="" link="data:page/id,VksMP-APIKd3p9qy1frE" id="Kxpkx8Kjv7JTmc_ikyto-14">
          <mxCell style="shape=sumEllipse;perimeter=ellipsePerimeter;whiteSpace=wrap;html=1;backgroundOutline=1;" vertex="1" parent="Kxpkx8Kjv7JTmc_ikyto-1">
            <mxGeometry x="400" y="20" width="40" height="40" as="geometry" />
          </mxCell>
        </UserObject>
        <UserObject label="" link="data:page/id,NIJT_eNwgPCjwMeY6-0-" id="Kxpkx8Kjv7JTmc_ikyto-15">
          <mxCell style="group" vertex="1" connectable="0" parent="Kxpkx8Kjv7JTmc_ikyto-1">
            <mxGeometry x="673" y="20" width="133" height="40" as="geometry" />
          </mxCell>
        </UserObject>
        <UserObject label="Cerrar Sesión" id="Kxpkx8Kjv7JTmc_ikyto-16">
          <mxCell style="text;html=1;align=center;verticalAlign=middle;whiteSpace=wrap;rounded=0;" vertex="1" parent="Kxpkx8Kjv7JTmc_ikyto-15">
            <mxGeometry x="40" y="5" width="93" height="30" as="geometry" />
          </mxCell>
        </UserObject>
        <mxCell id="Kxpkx8Kjv7JTmc_ikyto-17" value="" style="shape=sumEllipse;perimeter=ellipsePerimeter;whiteSpace=wrap;html=1;backgroundOutline=1;" vertex="1" parent="Kxpkx8Kjv7JTmc_ikyto-15">
          <mxGeometry width="40" height="40" as="geometry" />
        </mxCell>
        <mxCell id="Kxpkx8Kjv7JTmc_ikyto-95" value="" style="rounded=0;whiteSpace=wrap;html=1;" vertex="1" parent="Kxpkx8Kjv7JTmc_ikyto-1">
          <mxGeometry x="80" y="130" width="640" height="310" as="geometry" />
        </mxCell>
        <mxCell id="Kxpkx8Kjv7JTmc_ikyto-96" value="" style="shape=cross;whiteSpace=wrap;html=1;" vertex="1" parent="Kxpkx8Kjv7JTmc_ikyto-1">
          <mxGeometry x="370" y="245" width="80" height="80" as="geometry" />
        </mxCell>
        <mxCell id="Kxpkx8Kjv7JTmc_ikyto-97" value="&amp;gt; A la api de analisis de archivos" style="text;html=1;align=center;verticalAlign=middle;whiteSpace=wrap;rounded=0;" vertex="1" parent="Kxpkx8Kjv7JTmc_ikyto-1">
          <mxGeometry x="310" y="350" width="200" height="30" as="geometry" />
        </mxCell>
        <mxCell id="Kxpkx8Kjv7JTmc_ikyto-98" value="&amp;gt; Después de pasar por la api sín problemas" style="text;html=1;align=center;verticalAlign=middle;whiteSpace=wrap;rounded=0;" vertex="1" parent="Kxpkx8Kjv7JTmc_ikyto-1">
          <mxGeometry x="270" y="460" width="260" height="30" as="geometry" />
        </mxCell>
        <mxCell id="Kxpkx8Kjv7JTmc_ikyto-99" value="" style="rounded=0;whiteSpace=wrap;html=1;" vertex="1" parent="Kxpkx8Kjv7JTmc_ikyto-1">
          <mxGeometry x="30" y="500" width="760" height="640" as="geometry" />
        </mxCell>
        <mxCell id="Kxpkx8Kjv7JTmc_ikyto-100" value="&lt;b&gt;Titulo&lt;/b&gt;" style="text;html=1;align=center;verticalAlign=middle;whiteSpace=wrap;rounded=0;" vertex="1" parent="Kxpkx8Kjv7JTmc_ikyto-1">
          <mxGeometry x="246" y="530" width="60" height="30" as="geometry" />
        </mxCell>
        <mxCell id="Kxpkx8Kjv7JTmc_ikyto-101" value="" style="rounded=1;whiteSpace=wrap;html=1;" vertex="1" parent="Kxpkx8Kjv7JTmc_ikyto-1">
          <mxGeometry x="312" y="535" width="188" height="20" as="geometry" />
        </mxCell>
        <mxCell id="Kxpkx8Kjv7JTmc_ikyto-102" value="Autor Original" style="text;html=1;align=center;verticalAlign=middle;whiteSpace=wrap;rounded=0;fontStyle=1" vertex="1" parent="Kxpkx8Kjv7JTmc_ikyto-1">
          <mxGeometry x="220" y="570" width="86" height="30" as="geometry" />
        </mxCell>
        <mxCell id="Kxpkx8Kjv7JTmc_ikyto-103" value="" style="rounded=1;whiteSpace=wrap;html=1;fontStyle=1" vertex="1" parent="Kxpkx8Kjv7JTmc_ikyto-1">
          <mxGeometry x="312" y="575" width="188" height="20" as="geometry" />
        </mxCell>
        <mxCell id="Kxpkx8Kjv7JTmc_ikyto-104" value="Tipo Contenido" style="text;html=1;align=center;verticalAlign=middle;whiteSpace=wrap;rounded=0;fontStyle=1" vertex="1" parent="Kxpkx8Kjv7JTmc_ikyto-1">
          <mxGeometry x="200" y="610" width="106" height="30" as="geometry" />
        </mxCell>
        <mxCell id="Kxpkx8Kjv7JTmc_ikyto-105" value="Escoge" style="rounded=1;whiteSpace=wrap;html=1;fontStyle=1" vertex="1" parent="Kxpkx8Kjv7JTmc_ikyto-1">
          <mxGeometry x="312" y="615" width="188" height="20" as="geometry" />
        </mxCell>
        <mxCell id="Kxpkx8Kjv7JTmc_ikyto-106" value="" style="endArrow=classic;html=1;rounded=0;strokeWidth=1;startArrow=none;startFill=0;shape=flexArrow;" edge="1" parent="Kxpkx8Kjv7JTmc_ikyto-1">
          <mxGeometry width="50" height="50" relative="1" as="geometry">
            <mxPoint x="480" y="615" as="sourcePoint" />
            <mxPoint x="480" y="635" as="targetPoint" />
          </mxGeometry>
        </mxCell>
        <mxCell id="Kxpkx8Kjv7JTmc_ikyto-107" value="Descripción&lt;span style=&quot;color: rgba(0, 0, 0, 0); font-family: monospace; font-size: 0px; font-weight: 400; text-align: start; text-wrap: nowrap;&quot;&gt;%3CmxGraphModel%3E%3Croot%3E%3CmxCell%20id%3D%220%22%2F%3E%3CmxCell%20id%3D%221%22%20parent%3D%220%22%2F%3E%3CmxCell%20id%3D%222%22%20value%3D%22Autor%20Original%22%20style%3D%22text%3Bhtml%3D1%3Balign%3Dcenter%3BverticalAlign%3Dmiddle%3BwhiteSpace%3Dwrap%3Brounded%3D0%3BfontStyle%3D1%22%20vertex%3D%221%22%20parent%3D%221%22%3E%3CmxGeometry%20x%3D%22220%22%20y%3D%22570%22%20width%3D%2286%22%20height%3D%2230%22%20as%3D%22geometry%22%2F%3E%3C%2FmxCell%3E%3CmxCell%20id%3D%223%22%20value%3D%22%22%20style%3D%22rounded%3D1%3BwhiteSpace%3Dwrap%3Bhtml%3D1%3BfontStyle%3D1%22%20vertex%3D%221%22%20parent%3D%221%22%3E%3CmxGeometry%20x%3D%22312%22%20y%3D%22575%22%20width%3D%22188%22%20height%3D%2220%22%20as%3D%22geometry%22%2F%3E%3C%2FmxCell%3E%3C%2Froot%3E%3C%2FmxGraphModel%3E&lt;/span&gt;" style="text;html=1;align=center;verticalAlign=middle;whiteSpace=wrap;rounded=0;fontStyle=1" vertex="1" parent="Kxpkx8Kjv7JTmc_ikyto-1">
          <mxGeometry x="220" y="660" width="86" height="30" as="geometry" />
        </mxCell>
        <mxCell id="Kxpkx8Kjv7JTmc_ikyto-108" value="" style="rounded=1;whiteSpace=wrap;html=1;fontStyle=1" vertex="1" parent="Kxpkx8Kjv7JTmc_ikyto-1">
          <mxGeometry x="312" y="665" width="188" height="105" as="geometry" />
        </mxCell>
        <mxCell id="Kxpkx8Kjv7JTmc_ikyto-109" value="Fecha de publicación Original" style="text;html=1;align=center;verticalAlign=middle;whiteSpace=wrap;rounded=0;fontStyle=1" vertex="1" parent="Kxpkx8Kjv7JTmc_ikyto-1">
          <mxGeometry x="170" y="790" width="136" height="30" as="geometry" />
        </mxCell>
        <mxCell id="Kxpkx8Kjv7JTmc_ikyto-110" value="" style="rounded=1;whiteSpace=wrap;html=1;fontStyle=1" vertex="1" parent="Kxpkx8Kjv7JTmc_ikyto-1">
          <mxGeometry x="312" y="795" width="188" height="20" as="geometry" />
        </mxCell>
        <mxCell id="Kxpkx8Kjv7JTmc_ikyto-111" value="Publicar" style="rounded=1;whiteSpace=wrap;html=1;" vertex="1" parent="Kxpkx8Kjv7JTmc_ikyto-1">
          <mxGeometry x="354" y="830" width="120" height="30" as="geometry" />
        </mxCell>
        <UserObject label="" link="data:page/id,IAW55RW-1b6eh70SpbsO" id="Kxpkx8Kjv7JTmc_ikyto-94">
          <mxCell style="shape=flexArrow;endArrow=classic;html=1;rounded=0;" edge="1" parent="1">
            <mxGeometry width="50" height="50" relative="1" as="geometry">
              <mxPoint x="510" y="60" as="sourcePoint" />
              <mxPoint x="510" y="20" as="targetPoint" />
            </mxGeometry>
          </mxCell>
        </UserObject>
      </root>
    </mxGraphModel>
  </diagram>
</mxfile>
